<?xml version="1.0" encoding="UTF-8" standalone="no"?>
<!DOCTYPE svg PUBLIC "-//W3C//DTD SVG 1.1//EN"
 "http://www.w3.org/Graphics/SVG/1.1/DTD/svg11.dtd">
<!-- Generated by graphviz version 12.1.1 (20240910.0053)
 -->
<!-- Title: HolaMundoIBeacon/EmisoraBLE.h Pages: 1 -->
<svg width="149pt" height="152pt"
 viewBox="0.00 0.00 148.50 152.00" xmlns="http://www.w3.org/2000/svg" xmlns:xlink="http://www.w3.org/1999/xlink">
<g id="graph0" class="graph" transform="scale(1 1) rotate(0) translate(4 148)">
<title>HolaMundoIBeacon/EmisoraBLE.h</title>
<!-- Node1 -->
<g id="Node000001" class="node">
<title>Node1</title>
<g id="a_Node000001"><a xlink:title="Clase para manejar la emisora BLE y la emisión de beacons.">
<polygon fill="#999999" stroke="#666666" points="140.5,-144 0,-144 0,-112 140.5,-112 140.5,-144"/>
<text text-anchor="start" x="8" y="-130.5" font-family="Helvetica,sans-Serif" font-size="10.00">HolaMundoIBeacon/Emisora</text>
<text text-anchor="middle" x="70.25" y="-118.5" font-family="Helvetica,sans-Serif" font-size="10.00">BLE.h</text>
</a>
</g>
</g>
<!-- Node2 -->
<g id="Node000002" class="node">
<title>Node2</title>
<g id="a_Node000002"><a xlink:href="_servicio_en_emisora_8h.html" target="_top" xlink:title="Definición de la clase ServicioEnEmisora y Clase que representa una característica dentro de un servi...">
<polygon fill="white" stroke="#666666" points="124,-76 16.5,-76 16.5,-56 124,-56 124,-76"/>
<text text-anchor="middle" x="70.25" y="-62.5" font-family="Helvetica,sans-Serif" font-size="10.00">ServicioEnEmisora.h</text>
</a>
</g>
</g>
<!-- Node1&#45;&gt;Node2 -->
<g id="edge1_Node000001_Node000002" class="edge">
<title>Node1&#45;&gt;Node2</title>
<g id="a_edge1_Node000001_Node000002"><a xlink:title=" ">
<path fill="none" stroke="#63b8ff" d="M70.25,-111.55C70.25,-104.34 70.25,-95.66 70.25,-87.88"/>
<polygon fill="#63b8ff" stroke="#63b8ff" points="73.75,-87.92 70.25,-77.92 66.75,-87.92 73.75,-87.92"/>
</a>
</g>
</g>
<!-- Node3 -->
<g id="Node000003" class="node">
<title>Node3</title>
<g id="a_Node000003"><a xlink:title=" ">
<polygon fill="#e0e0e0" stroke="#999999" points="91.75,-20 48.75,-20 48.75,0 91.75,0 91.75,-20"/>
<text text-anchor="middle" x="70.25" y="-6.5" font-family="Helvetica,sans-Serif" font-size="10.00">vector</text>
</a>
</g>
</g>
<!-- Node2&#45;&gt;Node3 -->
<g id="edge2_Node000002_Node000003" class="edge">
<title>Node2&#45;&gt;Node3</title>
<g id="a_edge2_Node000002_Node000003"><a xlink:title=" ">
<path fill="none" stroke="#63b8ff" d="M70.25,-55.59C70.25,-49.01 70.25,-39.96 70.25,-31.73"/>
<polygon fill="#63b8ff" stroke="#63b8ff" points="73.75,-31.81 70.25,-21.81 66.75,-31.81 73.75,-31.81"/>
</a>
</g>
</g>
</g>
</svg>
