<?xml version="1.0" encoding="UTF-8" standalone="no"?>
<!DOCTYPE svg PUBLIC "-//W3C//DTD SVG 1.1//EN"
 "http://www.w3.org/Graphics/SVG/1.1/DTD/svg11.dtd">
<!-- Generated by graphviz version 12.1.1 (20240910.0053)
 -->
<!-- Title: lucecitas Pages: 1 -->
<svg width="281pt" height="104pt"
 viewBox="0.00 0.00 281.00 104.00" xmlns="http://www.w3.org/2000/svg" xmlns:xlink="http://www.w3.org/1999/xlink">
<g id="graph0" class="graph" transform="scale(1 1) rotate(0) translate(4 100)">
<title>lucecitas</title>
<!-- Node1 -->
<g id="Node000001" class="node">
<title>Node1</title>
<g id="a_Node000001"><a xlink:title="Realiza una secuencia de encendido y apagado del LED. Utiliza tiempos de espera definidos entre cambi...">
<polygon fill="#999999" stroke="#666666" points="55,-39 0,-39 0,-19 55,-19 55,-39"/>
<text text-anchor="middle" x="27.5" y="-25.5" font-family="Helvetica,sans-Serif" font-size="10.00">lucecitas</text>
</a>
</g>
</g>
<!-- Node2 -->
<g id="Node000002" class="node">
<title>Node2</title>
<g id="a_Node000002"><a xlink:href="class_l_e_d.html#a7431e9efb39a2890f75b4e235b8f617e" target="_top" xlink:title="Hace que el LED brille por un tiempo determinado.">
<polygon fill="white" stroke="#666666" points="155.75,-58 91,-58 91,-38 155.75,-38 155.75,-58"/>
<text text-anchor="middle" x="123.38" y="-44.5" font-family="Helvetica,sans-Serif" font-size="10.00">LED::brillar</text>
</a>
</g>
</g>
<!-- Node1&#45;&gt;Node2 -->
<g id="edge1_Node000001_Node000002" class="edge">
<title>Node1&#45;&gt;Node2</title>
<g id="a_edge1_Node000001_Node000002"><a xlink:title=" ">
<path fill="none" stroke="#63b8ff" d="M55.4,-34.44C63,-35.98 71.46,-37.7 79.74,-39.37"/>
<polygon fill="#63b8ff" stroke="#63b8ff" points="78.85,-42.76 89.34,-41.31 80.23,-35.9 78.85,-42.76"/>
</a>
</g>
</g>
<!-- Node5 -->
<g id="Node000005" class="node">
<title>Node5</title>
<g id="a_Node000005"><a xlink:href="_l_e_d_8h.html#a2fb17dd710d89b92e59a349551733fa0" target="_top" xlink:title="Función auxiliar para pausar la ejecución por un tiempo determinado.">
<polygon fill="white" stroke="#666666" points="256.5,-20 208.25,-20 208.25,0 256.5,0 256.5,-20"/>
<text text-anchor="middle" x="232.38" y="-6.5" font-family="Helvetica,sans-Serif" font-size="10.00">esperar</text>
</a>
</g>
</g>
<!-- Node1&#45;&gt;Node5 -->
<g id="edge5_Node000001_Node000005" class="edge">
<title>Node1&#45;&gt;Node5</title>
<g id="a_edge5_Node000001_Node000005"><a xlink:title=" ">
<path fill="none" stroke="#63b8ff" d="M55.44,-26.48C91.76,-23.08 156.47,-17.02 196.47,-13.27"/>
<polygon fill="#63b8ff" stroke="#63b8ff" points="196.66,-16.77 206.29,-12.35 196,-9.8 196.66,-16.77"/>
</a>
</g>
</g>
<!-- Node3 -->
<g id="Node000003" class="node">
<title>Node3</title>
<g id="a_Node000003"><a xlink:href="class_l_e_d.html#a7f961959fa7405fec54de6121415db80" target="_top" xlink:title="Apaga el LED.">
<polygon fill="white" stroke="#666666" points="267.75,-96 197,-96 197,-76 267.75,-76 267.75,-96"/>
<text text-anchor="middle" x="232.38" y="-82.5" font-family="Helvetica,sans-Serif" font-size="10.00">LED::apagar</text>
</a>
</g>
</g>
<!-- Node2&#45;&gt;Node3 -->
<g id="edge2_Node000002_Node000003" class="edge">
<title>Node2&#45;&gt;Node3</title>
<g id="a_edge2_Node000002_Node000003"><a xlink:title=" ">
<path fill="none" stroke="#63b8ff" d="M153.9,-58.48C165.47,-62.6 178.94,-67.38 191.37,-71.79"/>
<polygon fill="#63b8ff" stroke="#63b8ff" points="189.93,-74.99 200.52,-75.04 192.27,-68.4 189.93,-74.99"/>
</a>
</g>
</g>
<!-- Node4 -->
<g id="Node000004" class="node">
<title>Node4</title>
<g id="a_Node000004"><a xlink:href="class_l_e_d.html#a58660bafc0f4d6016392feabac555812" target="_top" xlink:title="Enciende el LED.">
<polygon fill="white" stroke="#666666" points="273,-58 191.75,-58 191.75,-38 273,-38 273,-58"/>
<text text-anchor="middle" x="232.38" y="-44.5" font-family="Helvetica,sans-Serif" font-size="10.00">LED::encender</text>
</a>
</g>
</g>
<!-- Node2&#45;&gt;Node4 -->
<g id="edge3_Node000002_Node000004" class="edge">
<title>Node2&#45;&gt;Node4</title>
<g id="a_edge3_Node000002_Node000004"><a xlink:title=" ">
<path fill="none" stroke="#63b8ff" d="M156.19,-48C163.73,-48 171.95,-48 180.11,-48"/>
<polygon fill="#63b8ff" stroke="#63b8ff" points="180.01,-51.5 190.01,-48 180.01,-44.5 180.01,-51.5"/>
</a>
</g>
</g>
<!-- Node2&#45;&gt;Node5 -->
<g id="edge4_Node000002_Node000005" class="edge">
<title>Node2&#45;&gt;Node5</title>
<g id="a_edge4_Node000002_Node000005"><a xlink:title=" ">
<path fill="none" stroke="#63b8ff" d="M153.9,-37.52C167.37,-32.73 183.4,-27.04 197.37,-22.08"/>
<polygon fill="#63b8ff" stroke="#63b8ff" points="198.37,-25.44 206.62,-18.79 196.03,-18.84 198.37,-25.44"/>
</a>
</g>
</g>
</g>
</svg>
