<?xml version="1.0" encoding="UTF-8" standalone="no"?>
<!DOCTYPE svg PUBLIC "-//W3C//DTD SVG 1.1//EN"
 "http://www.w3.org/Graphics/SVG/1.1/DTD/svg11.dtd">
<!-- Generated by graphviz version 12.1.1 (20240910.0053)
 -->
<!-- Title: HolaMundoIBeacon/HolaMundoIBeacon.ino Pages: 1 -->
<svg width="484pt" height="208pt"
 viewBox="0.00 0.00 483.75 208.00" xmlns="http://www.w3.org/2000/svg" xmlns:xlink="http://www.w3.org/1999/xlink">
<g id="graph0" class="graph" transform="scale(1 1) rotate(0) translate(4 204)">
<title>HolaMundoIBeacon/HolaMundoIBeacon.ino</title>
<!-- Node1 -->
<g id="Node000001" class="node">
<title>Node1</title>
<g id="a_Node000001"><a xlink:title="Implementación principal del programa que utiliza BLE para publicar datos de sensores.">
<polygon fill="#999999" stroke="#666666" points="300.38,-200 146.38,-200 146.38,-168 300.38,-168 300.38,-200"/>
<text text-anchor="start" x="154.38" y="-186.5" font-family="Helvetica,sans-Serif" font-size="10.00">HolaMundoIBeacon/HolaMundo</text>
<text text-anchor="middle" x="223.38" y="-174.5" font-family="Helvetica,sans-Serif" font-size="10.00">IBeacon.ino</text>
</a>
</g>
</g>
<!-- Node2 -->
<g id="Node000002" class="node">
<title>Node2</title>
<g id="a_Node000002"><a xlink:title=" ">
<polygon fill="#e0e0e0" stroke="#999999" points="58.75,-132 0,-132 0,-112 58.75,-112 58.75,-132"/>
<text text-anchor="middle" x="29.38" y="-118.5" font-family="Helvetica,sans-Serif" font-size="10.00">bluefruit.h</text>
</a>
</g>
</g>
<!-- Node1&#45;&gt;Node2 -->
<g id="edge1_Node000001_Node000002" class="edge">
<title>Node1&#45;&gt;Node2</title>
<g id="a_edge1_Node000001_Node000002"><a xlink:title=" ">
<path fill="none" stroke="#63b8ff" d="M173.42,-167.55C141.36,-157.63 100.26,-144.92 70.18,-135.62"/>
<polygon fill="#63b8ff" stroke="#63b8ff" points="71.26,-132.29 60.67,-132.68 69.19,-138.98 71.26,-132.29"/>
</a>
</g>
</g>
<!-- Node3 -->
<g id="Node000003" class="node">
<title>Node3</title>
<g id="a_Node000003"><a xlink:href="_l_e_d_8h.html" target="_top" xlink:title="Definición de la clase LED para controlar un LED en un pin específico.">
<polygon fill="white" stroke="#666666" points="120.25,-132 76.5,-132 76.5,-112 120.25,-112 120.25,-132"/>
<text text-anchor="middle" x="98.38" y="-118.5" font-family="Helvetica,sans-Serif" font-size="10.00">LED.h</text>
</a>
</g>
</g>
<!-- Node1&#45;&gt;Node3 -->
<g id="edge2_Node000001_Node000003" class="edge">
<title>Node1&#45;&gt;Node3</title>
<g id="a_edge2_Node000001_Node000003"><a xlink:title=" ">
<path fill="none" stroke="#63b8ff" d="M191.18,-167.55C171.74,-158.22 147.14,-146.41 128.15,-137.29"/>
<polygon fill="#63b8ff" stroke="#63b8ff" points="129.87,-134.23 119.34,-133.06 126.84,-140.55 129.87,-134.23"/>
</a>
</g>
</g>
<!-- Node4 -->
<g id="Node000004" class="node">
<title>Node4</title>
<g id="a_Node000004"><a xlink:href="_puerto_serie_8h.html" target="_top" xlink:title="Definición de la clase PuertoSerie para la comunicación por puerto serie.">
<polygon fill="white" stroke="#666666" points="214,-132 138.75,-132 138.75,-112 214,-112 214,-132"/>
<text text-anchor="middle" x="176.38" y="-118.5" font-family="Helvetica,sans-Serif" font-size="10.00">PuertoSerie.h</text>
</a>
</g>
</g>
<!-- Node1&#45;&gt;Node4 -->
<g id="edge3_Node000001_Node000004" class="edge">
<title>Node1&#45;&gt;Node4</title>
<g id="a_edge3_Node000001_Node000004"><a xlink:title=" ">
<path fill="none" stroke="#63b8ff" d="M211.27,-167.55C205.02,-159.56 197.34,-149.76 190.78,-141.39"/>
<polygon fill="#63b8ff" stroke="#63b8ff" points="193.6,-139.31 184.68,-133.6 188.09,-143.63 193.6,-139.31"/>
</a>
</g>
</g>
<!-- Node5 -->
<g id="Node000005" class="node">
<title>Node5</title>
<g id="a_Node000005"><a xlink:href="_emisora_b_l_e_8h.html" target="_top" xlink:title="Clase para manejar la emisora BLE y la emisión de beacons.">
<polygon fill="white" stroke="#666666" points="310.88,-132 231.88,-132 231.88,-112 310.88,-112 310.88,-132"/>
<text text-anchor="middle" x="271.38" y="-118.5" font-family="Helvetica,sans-Serif" font-size="10.00">EmisoraBLE.h</text>
</a>
</g>
</g>
<!-- Node1&#45;&gt;Node5 -->
<g id="edge4_Node000001_Node000005" class="edge">
<title>Node1&#45;&gt;Node5</title>
<g id="a_edge4_Node000001_Node000005"><a xlink:title=" ">
<path fill="none" stroke="#63b8ff" d="M235.74,-167.55C242.13,-159.56 249.97,-149.76 256.66,-141.39"/>
<polygon fill="#63b8ff" stroke="#63b8ff" points="259.39,-143.59 262.9,-133.59 253.92,-139.21 259.39,-143.59"/>
</a>
</g>
</g>
<!-- Node8 -->
<g id="Node000008" class="node">
<title>Node8</title>
<g id="a_Node000008"><a xlink:href="_publicador_8h.html" target="_top" xlink:title="Definición de la clase Publicador para emitir anuncios BLE de CO2 y temperatura.">
<polygon fill="white" stroke="#666666" points="399.38,-132 329.38,-132 329.38,-112 399.38,-112 399.38,-132"/>
<text text-anchor="middle" x="364.38" y="-118.5" font-family="Helvetica,sans-Serif" font-size="10.00">Publicador.h</text>
</a>
</g>
</g>
<!-- Node1&#45;&gt;Node8 -->
<g id="edge7_Node000001_Node000008" class="edge">
<title>Node1&#45;&gt;Node8</title>
<g id="a_edge7_Node000001_Node000008"><a xlink:title=" ">
<path fill="none" stroke="#63b8ff" d="M259.69,-167.55C281.92,-158.09 310.14,-146.08 331.68,-136.91"/>
<polygon fill="#63b8ff" stroke="#63b8ff" points="333.04,-140.14 340.87,-133 330.3,-133.7 333.04,-140.14"/>
</a>
</g>
</g>
<!-- Node9 -->
<g id="Node000009" class="node">
<title>Node9</title>
<g id="a_Node000009"><a xlink:href="_medidor_8h.html" target="_top" xlink:title="Definición de la clase Medidor para medir CO2 y temperatura.">
<polygon fill="white" stroke="#666666" points="475.75,-132 417,-132 417,-112 475.75,-112 475.75,-132"/>
<text text-anchor="middle" x="446.38" y="-118.5" font-family="Helvetica,sans-Serif" font-size="10.00">Medidor.h</text>
</a>
</g>
</g>
<!-- Node1&#45;&gt;Node9 -->
<g id="edge8_Node000001_Node000009" class="edge">
<title>Node1&#45;&gt;Node9</title>
<g id="a_edge8_Node000001_Node000009"><a xlink:title=" ">
<path fill="none" stroke="#63b8ff" d="M280.8,-167.55C319.93,-157.02 370.78,-143.34 405.74,-133.93"/>
<polygon fill="#63b8ff" stroke="#63b8ff" points="406.29,-137.41 415.04,-131.43 404.48,-130.65 406.29,-137.41"/>
</a>
</g>
</g>
<!-- Node6 -->
<g id="Node000006" class="node">
<title>Node6</title>
<g id="a_Node000006"><a xlink:href="_servicio_en_emisora_8h.html" target="_top" xlink:title="Definición de la clase ServicioEnEmisora y Clase que representa una característica dentro de un servi...">
<polygon fill="white" stroke="#666666" points="325.12,-76 217.62,-76 217.62,-56 325.12,-56 325.12,-76"/>
<text text-anchor="middle" x="271.38" y="-62.5" font-family="Helvetica,sans-Serif" font-size="10.00">ServicioEnEmisora.h</text>
</a>
</g>
</g>
<!-- Node5&#45;&gt;Node6 -->
<g id="edge5_Node000005_Node000006" class="edge">
<title>Node5&#45;&gt;Node6</title>
<g id="a_edge5_Node000005_Node000006"><a xlink:title=" ">
<path fill="none" stroke="#63b8ff" d="M271.38,-111.59C271.38,-105.01 271.38,-95.96 271.38,-87.73"/>
<polygon fill="#63b8ff" stroke="#63b8ff" points="274.88,-87.81 271.38,-77.81 267.88,-87.81 274.88,-87.81"/>
</a>
</g>
</g>
<!-- Node7 -->
<g id="Node000007" class="node">
<title>Node7</title>
<g id="a_Node000007"><a xlink:title=" ">
<polygon fill="#e0e0e0" stroke="#999999" points="292.88,-20 249.88,-20 249.88,0 292.88,0 292.88,-20"/>
<text text-anchor="middle" x="271.38" y="-6.5" font-family="Helvetica,sans-Serif" font-size="10.00">vector</text>
</a>
</g>
</g>
<!-- Node6&#45;&gt;Node7 -->
<g id="edge6_Node000006_Node000007" class="edge">
<title>Node6&#45;&gt;Node7</title>
<g id="a_edge6_Node000006_Node000007"><a xlink:title=" ">
<path fill="none" stroke="#63b8ff" d="M271.38,-55.59C271.38,-49.01 271.38,-39.96 271.38,-31.73"/>
<polygon fill="#63b8ff" stroke="#63b8ff" points="274.88,-31.81 271.38,-21.81 267.88,-31.81 274.88,-31.81"/>
</a>
</g>
</g>
</g>
</svg>
