<?xml version="1.0" encoding="UTF-8" standalone="no"?>
<!DOCTYPE svg PUBLIC "-//W3C//DTD SVG 1.1//EN"
 "http://www.w3.org/Graphics/SVG/1.1/DTD/svg11.dtd">
<!-- Generated by graphviz version 12.1.1 (20240910.0053)
 -->
<!-- Title: setup Pages: 1 -->
<svg width="235pt" height="218pt"
 viewBox="0.00 0.00 235.00 218.00" xmlns="http://www.w3.org/2000/svg" xmlns:xlink="http://www.w3.org/1999/xlink">
<g id="graph0" class="graph" transform="scale(1 1) rotate(0) translate(4 214)">
<title>setup</title>
<!-- Node1 -->
<g id="Node000001" class="node">
<title>Node1</title>
<g id="a_Node000001"><a xlink:title="Función de configuración (setup). Inicializa los módulos de comunicación, medición y publicación.">
<polygon fill="#999999" stroke="#666666" points="40,-115 0,-115 0,-95 40,-95 40,-115"/>
<text text-anchor="middle" x="20" y="-101.5" font-family="Helvetica,sans-Serif" font-size="10.00">setup</text>
</a>
</g>
</g>
<!-- Node2 -->
<g id="Node000002" class="node">
<title>Node2</title>
<g id="a_Node000002"><a xlink:href="class_publicador.html#a10f309e5dfd232d204c5d2952581fe16" target="_top" xlink:title="Enciende la emisora BLE.">
<polygon fill="white" stroke="#666666" points="223.25,-210 79.75,-210 79.75,-190 223.25,-190 223.25,-210"/>
<text text-anchor="middle" x="151.5" y="-196.5" font-family="Helvetica,sans-Serif" font-size="10.00">Publicador::encenderEmisora</text>
</a>
</g>
</g>
<!-- Node1&#45;&gt;Node2 -->
<g id="edge1_Node000001_Node000002" class="edge">
<title>Node1&#45;&gt;Node2</title>
<g id="a_edge1_Node000001_Node000002"><a xlink:title=" ">
<path fill="none" stroke="#63b8ff" d="M25.59,-115.39C33.46,-131.91 51.08,-164.06 76,-181 77.98,-182.35 80.06,-183.6 82.19,-184.76"/>
<polygon fill="#63b8ff" stroke="#63b8ff" points="80.68,-187.92 91.23,-188.95 83.63,-181.57 80.68,-187.92"/>
</a>
</g>
</g>
<!-- Node3 -->
<g id="Node000003" class="node">
<title>Node3</title>
<g id="a_Node000003"><a xlink:href="class_puerto_serie.html#ab1b6cecc098aa30e5704dc294deec1f4" target="_top" xlink:title="Escribe un mensaje a través del puerto serie.">
<polygon fill="white" stroke="#666666" points="203.75,-172 99.25,-172 99.25,-152 203.75,-152 203.75,-172"/>
<text text-anchor="middle" x="151.5" y="-158.5" font-family="Helvetica,sans-Serif" font-size="10.00">PuertoSerie::escribir</text>
</a>
</g>
</g>
<!-- Node1&#45;&gt;Node3 -->
<g id="edge2_Node000001_Node000003" class="edge">
<title>Node1&#45;&gt;Node3</title>
<g id="a_edge2_Node000001_Node000003"><a xlink:title=" ">
<path fill="none" stroke="#63b8ff" d="M33.33,-115.44C44,-123.98 60.16,-135.79 76,-143 80.05,-144.84 84.31,-146.53 88.66,-148.07"/>
<polygon fill="#63b8ff" stroke="#63b8ff" points="87.54,-151.39 98.13,-151.13 89.69,-144.72 87.54,-151.39"/>
</a>
</g>
</g>
<!-- Node4 -->
<g id="Node000004" class="node">
<title>Node4</title>
<g id="a_Node000004"><a xlink:href="_l_e_d_8h.html#a2fb17dd710d89b92e59a349551733fa0" target="_top" xlink:title="Función auxiliar para pausar la ejecución por un tiempo determinado.">
<polygon fill="white" stroke="#666666" points="175.62,-134 127.38,-134 127.38,-114 175.62,-114 175.62,-134"/>
<text text-anchor="middle" x="151.5" y="-120.5" font-family="Helvetica,sans-Serif" font-size="10.00">esperar</text>
</a>
</g>
</g>
<!-- Node1&#45;&gt;Node4 -->
<g id="edge3_Node000001_Node000004" class="edge">
<title>Node1&#45;&gt;Node4</title>
<g id="a_edge3_Node000001_Node000004"><a xlink:title=" ">
<path fill="none" stroke="#63b8ff" d="M40.39,-107.84C60.28,-110.76 91.64,-115.36 115.82,-118.91"/>
<polygon fill="#63b8ff" stroke="#63b8ff" points="115.13,-122.35 125.53,-120.34 116.14,-115.42 115.13,-122.35"/>
</a>
</g>
</g>
<!-- Node5 -->
<g id="Node000005" class="node">
<title>Node5</title>
<g id="a_Node000005"><a xlink:href="class_puerto_serie.html#acdb696d30440a38dac61f5f73625935a" target="_top" xlink:title="Espera un pequeño tiempo antes de que el puerto serie esté disponible.">
<polygon fill="white" stroke="#666666" points="227,-96 76,-96 76,-76 227,-76 227,-96"/>
<text text-anchor="middle" x="151.5" y="-82.5" font-family="Helvetica,sans-Serif" font-size="10.00">PuertoSerie::esperarDisponible</text>
</a>
</g>
</g>
<!-- Node1&#45;&gt;Node5 -->
<g id="edge4_Node000001_Node000005" class="edge">
<title>Node1&#45;&gt;Node5</title>
<g id="a_edge4_Node000001_Node000005"><a xlink:title=" ">
<path fill="none" stroke="#63b8ff" d="M40.39,-102.16C48.16,-101.02 57.68,-99.62 67.85,-98.13"/>
<polygon fill="#63b8ff" stroke="#63b8ff" points="68.19,-101.61 77.58,-96.7 67.18,-94.69 68.19,-101.61"/>
</a>
</g>
</g>
<!-- Node6 -->
<g id="Node000006" class="node">
<title>Node6</title>
<g id="a_Node000006"><a xlink:href="_hola_mundo_i_beacon_8ino.html#a555a607e0a0ed0a3f553843b6e96a5aa" target="_top" xlink:title="Inicializa la placa y sus módulos. Actualmente no hace nada.">
<polygon fill="white" stroke="#666666" points="197.38,-58 105.62,-58 105.62,-38 197.38,-38 197.38,-58"/>
<text text-anchor="middle" x="151.5" y="-44.5" font-family="Helvetica,sans-Serif" font-size="10.00">inicializarPlaquita</text>
</a>
</g>
</g>
<!-- Node1&#45;&gt;Node6 -->
<g id="edge5_Node000001_Node000006" class="edge">
<title>Node1&#45;&gt;Node6</title>
<g id="a_edge5_Node000001_Node000006"><a xlink:title=" ">
<path fill="none" stroke="#63b8ff" d="M33.33,-94.56C44,-86.02 60.16,-74.21 76,-67 81.91,-64.31 88.27,-61.95 94.7,-59.9"/>
<polygon fill="#63b8ff" stroke="#63b8ff" points="95.43,-63.34 104.04,-57.16 93.46,-56.62 95.43,-63.34"/>
</a>
</g>
</g>
<!-- Node7 -->
<g id="Node000007" class="node">
<title>Node7</title>
<g id="a_Node000007"><a xlink:href="class_medidor.html#a1d26e993a9198fac83d6edad4cc30bcf" target="_top" xlink:title="Método para iniciar el medidor.">
<polygon fill="white" stroke="#666666" points="209.75,-20 93.25,-20 93.25,0 209.75,0 209.75,-20"/>
<text text-anchor="middle" x="151.5" y="-6.5" font-family="Helvetica,sans-Serif" font-size="10.00">Medidor::iniciarMedidor</text>
</a>
</g>
</g>
<!-- Node1&#45;&gt;Node7 -->
<g id="edge6_Node000001_Node000007" class="edge">
<title>Node1&#45;&gt;Node7</title>
<g id="a_edge6_Node000001_Node000007"><a xlink:title=" ">
<path fill="none" stroke="#63b8ff" d="M25.59,-94.61C33.46,-78.09 51.08,-45.94 76,-29 78.11,-27.57 80.32,-26.24 82.6,-25.02"/>
<polygon fill="#63b8ff" stroke="#63b8ff" points="83.97,-28.24 91.61,-20.89 81.06,-21.87 83.97,-28.24"/>
</a>
</g>
</g>
</g>
</svg>
