<?xml version="1.0" encoding="UTF-8" standalone="no"?>
<!DOCTYPE svg PUBLIC "-//W3C//DTD SVG 1.1//EN"
 "http://www.w3.org/Graphics/SVG/1.1/DTD/svg11.dtd">
<!-- Generated by graphviz version 12.1.1 (20240910.0053)
 -->
<!-- Title: loop Pages: 1 -->
<!--zoomable 401 -->

<svg id="main" version="1.1" xmlns="http://www.w3.org/2000/svg" xmlns:xlink="http://www.w3.org/1999/xlink" xml:space="preserve" onload="init(evt)">

<style type="text/css"><![CDATA[
.node, .edge {opacity: 0.7;}
.node.selected, .edge.selected {opacity: 1;}
.edge:hover path { stroke: red; }
.edge:hover polygon { stroke: red; fill: red; }
]]></style>

<defs>
  <circle id="rim" cx="0" cy="0" r="7"/>
  <circle id="rim2" cx="0" cy="0" r="3.5"/>
  <g id="zoomPlus">
    <use xlink:href="#rim" fill="#404040"><set attributeName="fill" to="#808080" begin="zoomplus.mouseover" end="zoomplus.mouseout"/></use>
    <path d="M-4,0h8M0,-4v8" fill="none" stroke="white" stroke-width="1.5" pointer-events="none"/>
  </g>
  <g id="zoomMin">
    <use xlink:href="#rim" fill="#404040"><set attributeName="fill" to="#808080" begin="zoomminus.mouseover" end="zoomminus.mouseout"/></use>
    <path d="M-4,0h8" fill="none" stroke="white" stroke-width="1.5" pointer-events="none"/>
  </g>
  <g id="arrowUp" transform="translate(30 24)">
    <use xlink:href="#rim"/>
    <path pointer-events="none" fill="none" stroke="white" stroke-width="1.5" d="M0,-3.0v7 M-2.5,-0.5L0,-3.0L2.5,-0.5"/>
  </g>
  <g id="arrowRight" transform="rotate(90) translate(36 -43)">
    <use xlink:href="#rim"/>
    <path pointer-events="none" fill="none" stroke="white" stroke-width="1.5" d="M0,-3.0v7 M-2.5,-0.5L0,-3.0L2.5,-0.5"/>
  </g>
  <g id="arrowDown" transform="rotate(180) translate(-30 -48)">
    <use xlink:href="#rim"/>
    <path pointer-events="none" fill="none" stroke="white" stroke-width="1.5" d="M0,-3.0v7 M-2.5,-0.5L0,-3.0L2.5,-0.5"/>
  </g>
  <g id="arrowLeft" transform="rotate(270) translate(-36 17)">
    <use xlink:href="#rim"/>
    <path pointer-events="none" fill="none" stroke="white" stroke-width="1.5" d="M0,-3.0v7 M-2.5,-0.5L0,-3.0L2.5,-0.5"/>
  </g>
  <g id="resetDef">
    <use xlink:href="#rim2" fill="#404040"><set attributeName="fill" to="#808080" begin="reset.mouseover" end="reset.mouseout"/></use>
  </g>
</defs>
<script type="application/ecmascript">
var viewWidth = 531;
var viewHeight = 401;
var sectionId = 'dynsection-2';
</script>
<script type="application/ecmascript" xlink:href="svg.min.js"/>
<svg id="graph" class="graph">
<g id="viewport">
<title>loop</title>
<!-- Node1 -->
<g id="Node000001" class="node">
<title>Node1</title>
<g id="a_Node000001"><a xlink:title="Función principal (loop) del programa. Ejecuta mediciones de ozono y temperatura, publica los datos v...">
<polygon fill="#999999" stroke="#666666" points="34,-229 0,-229 0,-209 34,-209 34,-229"/>
<text text-anchor="middle" x="17" y="-215.5" font-family="Helvetica,sans-Serif" font-size="10.00">loop</text>
</a>
</g>
</g>
<!-- Node2 -->
<g id="Node000002" class="node">
<title>Node2</title>
<g id="a_Node000002"><a xlink:href="class_emisora_b_l_e.html#aeede390b7a6502baecb48e9db77120b4" target="_top" xlink:title="Detiene el anuncio BLE actual.">
<polygon fill="white" stroke="#666666" points="214.25,-393 70,-393 70,-373 214.25,-373 214.25,-393"/>
<text text-anchor="middle" x="142.12" y="-379.5" font-family="Helvetica,sans-Serif" font-size="10.00">EmisoraBLE::detenerAnuncio</text>
</a>
</g>
</g>
<!-- Node1&#45;&gt;Node2 -->
<g id="edge1_Node000001_Node000002" class="edge">
<title>Node1&#45;&gt;Node2</title>
<g id="a_edge1_Node000001_Node000002"><a xlink:title=" ">
<path fill="none" stroke="#63b8ff" d="M18.87,-229.42C21.56,-255.14 32.04,-322.17 70,-359 73.37,-362.27 77.19,-365.09 81.28,-367.53"/>
<polygon fill="#63b8ff" stroke="#63b8ff" points="79.36,-370.48 89.86,-371.87 82.52,-364.23 79.36,-370.48"/>
</a>
</g>
</g>
<!-- Node3 -->
<g id="Node000003" class="node">
<title>Node3</title>
<g id="a_Node000003"><a xlink:href="class_emisora_b_l_e.html#a8439d1e85ec8d630fcd33b01d8987d41" target="_top" xlink:title="Emite un anuncio iBeacon con una carga libre.">
<polygon fill="white" stroke="#666666" points="210.12,-317 74.12,-317 74.12,-285 210.12,-285 210.12,-317"/>
<text text-anchor="start" x="82.12" y="-303.5" font-family="Helvetica,sans-Serif" font-size="10.00">EmisoraBLE::emitirAnuncio</text>
<text text-anchor="middle" x="142.12" y="-291.5" font-family="Helvetica,sans-Serif" font-size="10.00">IBeaconLibre</text>
</a>
</g>
</g>
<!-- Node1&#45;&gt;Node3 -->
<g id="edge2_Node000001_Node000003" class="edge">
<title>Node1&#45;&gt;Node3</title>
<g id="a_edge2_Node000001_Node000003"><a xlink:title=" ">
<path fill="none" stroke="#63b8ff" d="M26.24,-229.38C35.77,-240.82 52.42,-259.17 70,-271 74.68,-274.15 79.73,-277.07 84.92,-279.75"/>
<polygon fill="#63b8ff" stroke="#63b8ff" points="83.11,-282.76 93.63,-283.97 86.16,-276.46 83.11,-282.76"/>
</a>
</g>
</g>
<!-- Node4 -->
<g id="Node000004" class="node">
<title>Node4</title>
<g id="a_Node000004"><a xlink:href="class_puerto_serie.html#ab1b6cecc098aa30e5704dc294deec1f4" target="_top" xlink:title="Escribe un mensaje a través del puerto serie.">
<polygon fill="white" stroke="#666666" points="380.25,-333 275.75,-333 275.75,-313 380.25,-313 380.25,-333"/>
<text text-anchor="middle" x="328" y="-319.5" font-family="Helvetica,sans-Serif" font-size="10.00">PuertoSerie::escribir</text>
</a>
</g>
</g>
<!-- Node1&#45;&gt;Node4 -->
<g id="edge4_Node000001_Node000004" class="edge">
<title>Node1&#45;&gt;Node4</title>
<g id="a_edge4_Node000001_Node000004"><a xlink:title=" ">
<path fill="none" stroke="#63b8ff" d="M19.4,-229.31C23.06,-251.63 35.16,-304.19 70,-326 135.68,-367.11 230.51,-351.07 284.72,-336.49"/>
<polygon fill="#63b8ff" stroke="#63b8ff" points="285.5,-339.91 294.19,-333.84 283.61,-333.17 285.5,-339.91"/>
</a>
</g>
</g>
<!-- Node5 -->
<g id="Node000005" class="node">
<title>Node5</title>
<g id="a_Node000005"><a xlink:href="_l_e_d_8h.html#a2fb17dd710d89b92e59a349551733fa0" target="_top" xlink:title="Función auxiliar para pausar la ejecución por un tiempo determinado.">
<polygon fill="white" stroke="#666666" points="506.5,-115 458.25,-115 458.25,-95 506.5,-95 506.5,-115"/>
<text text-anchor="middle" x="482.38" y="-101.5" font-family="Helvetica,sans-Serif" font-size="10.00">esperar</text>
</a>
</g>
</g>
<!-- Node1&#45;&gt;Node5 -->
<g id="edge5_Node000001_Node000005" class="edge">
<title>Node1&#45;&gt;Node5</title>
<g id="a_edge5_Node000001_Node000005"><a xlink:title=" ">
<path fill="none" stroke="#63b8ff" d="M20.15,-208.7C25.01,-188.37 38.9,-143.42 70,-124 132.2,-85.17 358.79,-96.37 446.43,-102.35"/>
<polygon fill="#63b8ff" stroke="#63b8ff" points="446.12,-105.84 456.34,-103.05 446.61,-98.85 446.12,-105.84"/>
</a>
</g>
</g>
<!-- Node6 -->
<g id="Node000006" class="node">
<title>Node6</title>
<g id="a_Node000006"><a xlink:href="_hola_mundo_i_beacon_8ino.html#a27ffed2fef5d69b87e240022e59c59ff" target="_top" xlink:title="Realiza una secuencia de encendido y apagado del LED. Utiliza tiempos de espera definidos entre cambi...">
<polygon fill="white" stroke="#666666" points="169.62,-77 114.62,-77 114.62,-57 169.62,-57 169.62,-77"/>
<text text-anchor="middle" x="142.12" y="-63.5" font-family="Helvetica,sans-Serif" font-size="10.00">lucecitas</text>
</a>
</g>
</g>
<!-- Node1&#45;&gt;Node6 -->
<g id="edge6_Node000001_Node000006" class="edge">
<title>Node1&#45;&gt;Node6</title>
<g id="a_edge6_Node000001_Node000006"><a xlink:title=" ">
<path fill="none" stroke="#63b8ff" d="M19.26,-208.75C22.74,-184.71 34.72,-124.21 70,-91 79.13,-82.4 91.45,-76.88 103.27,-73.33"/>
<polygon fill="#63b8ff" stroke="#63b8ff" points="104.04,-76.75 112.86,-70.87 102.3,-69.96 104.04,-76.75"/>
</a>
</g>
</g>
<!-- Node10 -->
<g id="Node000010" class="node">
<title>Node10</title>
<g id="a_Node000010"><a xlink:href="class_medidor.html#a64af072efeb9b6ff3fa4f261d9e23494" target="_top" xlink:title="Medir el nivel de ozono.">
<polygon fill="white" stroke="#666666" points="195.5,-191 88.75,-191 88.75,-171 195.5,-171 195.5,-191"/>
<text text-anchor="middle" x="142.12" y="-177.5" font-family="Helvetica,sans-Serif" font-size="10.00">Medidor::medirozono</text>
</a>
</g>
</g>
<!-- Node1&#45;&gt;Node10 -->
<g id="edge12_Node000001_Node000010" class="edge">
<title>Node1&#45;&gt;Node10</title>
<g id="a_edge12_Node000001_Node000010"><a xlink:title=" ">
<path fill="none" stroke="#63b8ff" d="M34.35,-213.95C50.11,-209.09 74.69,-201.5 96.3,-194.83"/>
<polygon fill="#63b8ff" stroke="#63b8ff" points="97.29,-198.19 105.82,-191.9 95.23,-191.5 97.29,-198.19"/>
</a>
</g>
</g>
<!-- Node11 -->
<g id="Node000011" class="node">
<title>Node11</title>
<g id="a_Node000011"><a xlink:href="class_medidor.html#a742eaebe02e1d1d67df55f7a73878421" target="_top" xlink:title="Medir la temperatura.">
<polygon fill="white" stroke="#666666" points="209.38,-153 74.88,-153 74.88,-133 209.38,-133 209.38,-153"/>
<text text-anchor="middle" x="142.12" y="-139.5" font-family="Helvetica,sans-Serif" font-size="10.00">Medidor::medirTemperatura</text>
</a>
</g>
</g>
<!-- Node1&#45;&gt;Node11 -->
<g id="edge13_Node000001_Node000011" class="edge">
<title>Node1&#45;&gt;Node11</title>
<g id="a_edge13_Node000001_Node000011"><a xlink:title=" ">
<path fill="none" stroke="#63b8ff" d="M24.46,-208.93C33.22,-196.09 50.08,-174.11 70,-162 72.57,-160.44 75.28,-159 78.06,-157.68"/>
<polygon fill="#63b8ff" stroke="#63b8ff" points="79.13,-161.02 87.03,-153.97 76.45,-154.56 79.13,-161.02"/>
</a>
</g>
</g>
<!-- Node12 -->
<g id="Node000012" class="node">
<title>Node12</title>
<g id="a_Node000012"><a xlink:href="class_publicador.html#a3bb0a20cbfb541728b68fdaacc1ee7e9" target="_top" xlink:title="Publica un valor de ozono mediante un anuncio iBeacon.">
<polygon fill="white" stroke="#666666" points="391.88,-248 264.12,-248 264.12,-228 391.88,-228 391.88,-248"/>
<text text-anchor="middle" x="328" y="-234.5" font-family="Helvetica,sans-Serif" font-size="10.00">Publicador::publicarozono</text>
</a>
</g>
</g>
<!-- Node1&#45;&gt;Node12 -->
<g id="edge14_Node000001_Node000012" class="edge">
<title>Node1&#45;&gt;Node12</title>
<g id="a_edge14_Node000001_Node000012"><a xlink:title=" ">
<path fill="none" stroke="#63b8ff" d="M34.18,-224.45C44.34,-227.6 57.78,-231.26 70,-233 131,-241.67 200.95,-242.44 252.46,-241.32"/>
<polygon fill="#63b8ff" stroke="#63b8ff" points="252.39,-244.82 262.3,-241.07 252.22,-237.82 252.39,-244.82"/>
</a>
</g>
</g>
<!-- Node13 -->
<g id="Node000013" class="node">
<title>Node13</title>
<g id="a_Node000013"><a xlink:href="class_publicador.html#a674ec7d8321b9792835cd935c6196dec" target="_top" xlink:title="Publica un valor de temperatura mediante un anuncio iBeacon.">
<polygon fill="white" stroke="#666666" points="405.75,-191 250.25,-191 250.25,-171 405.75,-171 405.75,-191"/>
<text text-anchor="middle" x="328" y="-177.5" font-family="Helvetica,sans-Serif" font-size="10.00">Publicador::publicarTemperatura</text>
</a>
</g>
</g>
<!-- Node1&#45;&gt;Node13 -->
<g id="edge16_Node000001_Node000013" class="edge">
<title>Node1&#45;&gt;Node13</title>
<g id="a_edge16_Node000001_Node000013"><a xlink:title=" ">
<path fill="none" stroke="#63b8ff" d="M34.33,-217.81C68.04,-215.27 147.74,-208.81 214.25,-200 228.6,-198.1 243.92,-195.74 258.5,-193.34"/>
<polygon fill="#63b8ff" stroke="#63b8ff" points="258.69,-196.85 267.98,-191.75 257.54,-189.95 258.69,-196.85"/>
</a>
</g>
</g>
<!-- Node3&#45;&gt;Node4 -->
<g id="edge3_Node000003_Node000004" class="edge">
<title>Node3&#45;&gt;Node4</title>
<g id="a_edge3_Node000003_Node000004"><a xlink:title=" ">
<path fill="none" stroke="#63b8ff" d="M210.55,-309.07C228.12,-311.17 246.98,-313.43 264.3,-315.5"/>
<polygon fill="#63b8ff" stroke="#63b8ff" points="263.58,-318.94 273.92,-316.65 264.41,-311.99 263.58,-318.94"/>
</a>
</g>
</g>
<!-- Node6&#45;&gt;Node5 -->
<g id="edge11_Node000006_Node000005" class="edge">
<title>Node6&#45;&gt;Node5</title>
<g id="a_edge11_Node000006_Node000005"><a xlink:title=" ">
<path fill="none" stroke="#63b8ff" d="M170.06,-68.64C217.73,-71.73 320.03,-79.17 405.75,-91 419.22,-92.86 433.94,-95.45 446.78,-97.9"/>
<polygon fill="#63b8ff" stroke="#63b8ff" points="445.99,-101.32 456.47,-99.8 447.33,-94.45 445.99,-101.32"/>
</a>
</g>
</g>
<!-- Node7 -->
<g id="Node000007" class="node">
<title>Node7</title>
<g id="a_Node000007"><a xlink:href="class_l_e_d.html#a7431e9efb39a2890f75b4e235b8f617e" target="_top" xlink:title="Hace que el LED brille por un tiempo determinado.">
<polygon fill="white" stroke="#666666" points="360.38,-39 295.62,-39 295.62,-19 360.38,-19 360.38,-39"/>
<text text-anchor="middle" x="328" y="-25.5" font-family="Helvetica,sans-Serif" font-size="10.00">LED::brillar</text>
</a>
</g>
</g>
<!-- Node6&#45;&gt;Node7 -->
<g id="edge7_Node000006_Node000007" class="edge">
<title>Node6&#45;&gt;Node7</title>
<g id="a_edge7_Node000006_Node000007"><a xlink:title=" ">
<path fill="none" stroke="#63b8ff" d="M169.86,-61.47C199.88,-55.27 249.01,-45.12 284.34,-37.82"/>
<polygon fill="#63b8ff" stroke="#63b8ff" points="284.72,-41.31 293.81,-35.86 283.31,-34.46 284.72,-41.31"/>
</a>
</g>
</g>
<!-- Node7&#45;&gt;Node5 -->
<g id="edge10_Node000007_Node000005" class="edge">
<title>Node7&#45;&gt;Node5</title>
<g id="a_edge10_Node000007_Node000005"><a xlink:title=" ">
<path fill="none" stroke="#63b8ff" d="M360.81,-36.64C374.95,-40.61 391.56,-46.1 405.75,-53 425.26,-62.49 445.41,-76.6 460,-87.72"/>
<polygon fill="#63b8ff" stroke="#63b8ff" points="457.49,-90.21 467.53,-93.6 461.8,-84.69 457.49,-90.21"/>
</a>
</g>
</g>
<!-- Node8 -->
<g id="Node000008" class="node">
<title>Node8</title>
<g id="a_Node000008"><a xlink:href="class_l_e_d.html#a7f961959fa7405fec54de6121415db80" target="_top" xlink:title="Apaga el LED.">
<polygon fill="white" stroke="#666666" points="517.75,-58 447,-58 447,-38 517.75,-38 517.75,-58"/>
<text text-anchor="middle" x="482.38" y="-44.5" font-family="Helvetica,sans-Serif" font-size="10.00">LED::apagar</text>
</a>
</g>
</g>
<!-- Node7&#45;&gt;Node8 -->
<g id="edge8_Node000007_Node000008" class="edge">
<title>Node7&#45;&gt;Node8</title>
<g id="a_edge8_Node000007_Node000008"><a xlink:title=" ">
<path fill="none" stroke="#63b8ff" d="M360.57,-32.94C382.15,-35.63 411.09,-39.24 435.24,-42.25"/>
<polygon fill="#63b8ff" stroke="#63b8ff" points="434.8,-45.72 445.15,-43.48 435.66,-38.77 434.8,-45.72"/>
</a>
</g>
</g>
<!-- Node9 -->
<g id="Node000009" class="node">
<title>Node9</title>
<g id="a_Node000009"><a xlink:href="class_l_e_d.html#a58660bafc0f4d6016392feabac555812" target="_top" xlink:title="Enciende el LED.">
<polygon fill="white" stroke="#666666" points="523,-20 441.75,-20 441.75,0 523,0 523,-20"/>
<text text-anchor="middle" x="482.38" y="-6.5" font-family="Helvetica,sans-Serif" font-size="10.00">LED::encender</text>
</a>
</g>
</g>
<!-- Node7&#45;&gt;Node9 -->
<g id="edge9_Node000007_Node000009" class="edge">
<title>Node7&#45;&gt;Node9</title>
<g id="a_edge9_Node000007_Node000009"><a xlink:title=" ">
<path fill="none" stroke="#63b8ff" d="M360.57,-25.06C380.63,-22.56 407.06,-19.27 430.09,-16.4"/>
<polygon fill="#63b8ff" stroke="#63b8ff" points="430.42,-19.88 439.91,-15.17 429.56,-12.93 430.42,-19.88"/>
</a>
</g>
</g>
<!-- Node12&#45;&gt;Node5 -->
<g id="edge15_Node000012_Node000005" class="edge">
<title>Node12&#45;&gt;Node5</title>
<g id="a_edge15_Node000012_Node000005"><a xlink:title=" ">
<path fill="none" stroke="#63b8ff" d="M357.36,-227.5C372.65,-221.01 391.29,-211.67 405.75,-200 432.43,-178.46 455.74,-145.95 469.18,-125.09"/>
<polygon fill="#63b8ff" stroke="#63b8ff" points="472.13,-126.99 474.48,-116.65 466.2,-123.26 472.13,-126.99"/>
</a>
</g>
</g>
<!-- Node13&#45;&gt;Node5 -->
<g id="edge17_Node000013_Node000005" class="edge">
<title>Node13&#45;&gt;Node5</title>
<g id="a_edge17_Node000013_Node000005"><a xlink:title=" ">
<path fill="none" stroke="#63b8ff" d="M349.87,-170.59C375.97,-157.57 420.87,-135.18 450.84,-120.23"/>
<polygon fill="#63b8ff" stroke="#63b8ff" points="452.02,-123.55 459.41,-115.96 448.89,-117.29 452.02,-123.55"/>
</a>
</g>
</g>
</g>
</svg>

<g id="navigator" transform="translate(0 0)" fill="#404254">
  <rect fill="#f2f5e9" fill-opacity="0.5" stroke="#606060" stroke-width=".5" x="0" y="0" width="60" height="60"/>
  <use id="zoomplus" xlink:href="#zoomPlus" x="17" y="9" onmousedown="handleZoom(evt,'in')"/>
  <use id="zoomminus" xlink:href="#zoomMin" x="42" y="9" onmousedown="handleZoom(evt,'out')"/>
  <use id="reset" xlink:href="#resetDef" x="30" y="36" onmousedown="handleReset()"/>
   <use id="arrowup" xlink:href="#arrowUp" x="0" y="0" onmousedown="handlePan(0,-1)"/>
  <use id="arrowright" xlink:href="#arrowRight" x="0" y="0" onmousedown="handlePan(1,0)"/>
  <use id="arrowdown" xlink:href="#arrowDown" x="0" y="0" onmousedown="handlePan(0,1)"/>
  <use id="arrowleft" xlink:href="#arrowLeft" x="0" y="0" onmousedown="handlePan(-1,0)"/>
</g>
<svg viewBox="0 0 15 15" width="100%" height="30px" preserveAspectRatio="xMaxYMin meet">
 <g id="arrow_out" transform="scale(0.3 0.3)">
  <a xlink:href="_hola_mundo_i_beacon_8ino_afe461d27b9c48d5921c00d521181f12f_cgraph_org.svg" target="_base">
   <rect id="button" ry="5" rx="5" y="6" x="6" height="38" width="38"
        fill="#f2f5e9" fill-opacity="0.5" stroke="#606060" stroke-width="1.0"/>
   <path id="arrow"
     d="M 11.500037,31.436501 C 11.940474,20.09759 22.043105,11.32322 32.158766,21.979434 L 37.068811,17.246167 C 37.068811,17.246167 37.088388,32 37.088388,32 L 22.160133,31.978069 C 22.160133,31.978069 26.997745,27.140456 26.997745,27.140456 C 18.528582,18.264221 13.291696,25.230495 11.500037,31.436501 z"
     style="fill:#404040;"/>
  </a>
 </g>
</svg>

<style type='text/css'>
<![CDATA[
[data-mouse-over-selected='false'] { opacity: 0.7; }
[data-mouse-over-selected='true']  { opacity: 1.0; }
]]>
</style>
<script type="application/ecmascript"><![CDATA[
document.addEventListener('DOMContentLoaded', (event) => {
  highlightEdges();
  highlightAdjacentNodes();
});
]]></script>
</svg>
