<?xml version="1.0" encoding="UTF-8" standalone="no"?>
<!DOCTYPE svg PUBLIC "-//W3C//DTD SVG 1.1//EN"
 "http://www.w3.org/Graphics/SVG/1.1/DTD/svg11.dtd">
<!-- Generated by graphviz version 12.1.1 (20240910.0053)
 -->
<!-- Title: loop Pages: 1 -->
<svg width="531pt" height="401pt"
 viewBox="0.00 0.00 531.00 401.00" xmlns="http://www.w3.org/2000/svg" xmlns:xlink="http://www.w3.org/1999/xlink">
<g id="graph0" class="graph" transform="scale(1 1) rotate(0) translate(4 397)">
<title>loop</title>
<!-- Node1 -->
<g id="Node000001" class="node">
<title>Node1</title>
<g id="a_Node000001"><a xlink:title="Función principal (loop) del programa. Ejecuta mediciones de CO2 y temperatura, publica los datos vía...">
<polygon fill="#999999" stroke="#666666" points="34,-229 0,-229 0,-209 34,-209 34,-229"/>
<text text-anchor="middle" x="17" y="-215.5" font-family="Helvetica,sans-Serif" font-size="10.00">loop</text>
</a>
</g>
</g>
<!-- Node2 -->
<g id="Node000002" class="node">
<title>Node2</title>
<g id="a_Node000002"><a xlink:href="class_emisora_b_l_e.html#aeede390b7a6502baecb48e9db77120b4" target="_top" xlink:title="Detiene el anuncio BLE actual.">
<polygon fill="white" stroke="#666666" points="214.25,-393 70,-393 70,-373 214.25,-373 214.25,-393"/>
<text text-anchor="middle" x="142.12" y="-379.5" font-family="Helvetica,sans-Serif" font-size="10.00">EmisoraBLE::detenerAnuncio</text>
</a>
</g>
</g>
<!-- Node1&#45;&gt;Node2 -->
<g id="edge1_Node000001_Node000002" class="edge">
<title>Node1&#45;&gt;Node2</title>
<g id="a_edge1_Node000001_Node000002"><a xlink:title=" ">
<path fill="none" stroke="#63b8ff" d="M18.87,-229.42C21.56,-255.14 32.04,-322.17 70,-359 73.37,-362.27 77.19,-365.09 81.28,-367.53"/>
<polygon fill="#63b8ff" stroke="#63b8ff" points="79.36,-370.48 89.86,-371.87 82.52,-364.23 79.36,-370.48"/>
</a>
</g>
</g>
<!-- Node3 -->
<g id="Node000003" class="node">
<title>Node3</title>
<g id="a_Node000003"><a xlink:href="class_emisora_b_l_e.html#a8439d1e85ec8d630fcd33b01d8987d41" target="_top" xlink:title="Emite un anuncio iBeacon con una carga libre.">
<polygon fill="white" stroke="#666666" points="210.12,-317 74.12,-317 74.12,-285 210.12,-285 210.12,-317"/>
<text text-anchor="start" x="82.12" y="-303.5" font-family="Helvetica,sans-Serif" font-size="10.00">EmisoraBLE::emitirAnuncio</text>
<text text-anchor="middle" x="142.12" y="-291.5" font-family="Helvetica,sans-Serif" font-size="10.00">IBeaconLibre</text>
</a>
</g>
</g>
<!-- Node1&#45;&gt;Node3 -->
<g id="edge2_Node000001_Node000003" class="edge">
<title>Node1&#45;&gt;Node3</title>
<g id="a_edge2_Node000001_Node000003"><a xlink:title=" ">
<path fill="none" stroke="#63b8ff" d="M26.24,-229.38C35.77,-240.82 52.42,-259.17 70,-271 74.68,-274.15 79.73,-277.07 84.92,-279.75"/>
<polygon fill="#63b8ff" stroke="#63b8ff" points="83.11,-282.76 93.63,-283.97 86.16,-276.46 83.11,-282.76"/>
</a>
</g>
</g>
<!-- Node4 -->
<g id="Node000004" class="node">
<title>Node4</title>
<g id="a_Node000004"><a xlink:href="class_puerto_serie.html#ab1b6cecc098aa30e5704dc294deec1f4" target="_top" xlink:title="Escribe un mensaje a través del puerto serie.">
<polygon fill="white" stroke="#666666" points="380.25,-333 275.75,-333 275.75,-313 380.25,-313 380.25,-333"/>
<text text-anchor="middle" x="328" y="-319.5" font-family="Helvetica,sans-Serif" font-size="10.00">PuertoSerie::escribir</text>
</a>
</g>
</g>
<!-- Node1&#45;&gt;Node4 -->
<g id="edge4_Node000001_Node000004" class="edge">
<title>Node1&#45;&gt;Node4</title>
<g id="a_edge4_Node000001_Node000004"><a xlink:title=" ">
<path fill="none" stroke="#63b8ff" d="M19.4,-229.31C23.06,-251.63 35.16,-304.19 70,-326 135.68,-367.11 230.51,-351.07 284.72,-336.49"/>
<polygon fill="#63b8ff" stroke="#63b8ff" points="285.5,-339.91 294.19,-333.84 283.61,-333.17 285.5,-339.91"/>
</a>
</g>
</g>
<!-- Node5 -->
<g id="Node000005" class="node">
<title>Node5</title>
<g id="a_Node000005"><a xlink:href="_l_e_d_8h.html#a2fb17dd710d89b92e59a349551733fa0" target="_top" xlink:title="Función auxiliar para pausar la ejecución por un tiempo determinado.">
<polygon fill="white" stroke="#666666" points="506.5,-115 458.25,-115 458.25,-95 506.5,-95 506.5,-115"/>
<text text-anchor="middle" x="482.38" y="-101.5" font-family="Helvetica,sans-Serif" font-size="10.00">esperar</text>
</a>
</g>
</g>
<!-- Node1&#45;&gt;Node5 -->
<g id="edge5_Node000001_Node000005" class="edge">
<title>Node1&#45;&gt;Node5</title>
<g id="a_edge5_Node000001_Node000005"><a xlink:title=" ">
<path fill="none" stroke="#63b8ff" d="M20.15,-208.7C25.01,-188.37 38.9,-143.42 70,-124 132.2,-85.17 358.79,-96.37 446.43,-102.35"/>
<polygon fill="#63b8ff" stroke="#63b8ff" points="446.12,-105.84 456.34,-103.05 446.61,-98.85 446.12,-105.84"/>
</a>
</g>
</g>
<!-- Node6 -->
<g id="Node000006" class="node">
<title>Node6</title>
<g id="a_Node000006"><a xlink:href="_hola_mundo_i_beacon_8ino.html#a27ffed2fef5d69b87e240022e59c59ff" target="_top" xlink:title="Realiza una secuencia de encendido y apagado del LED. Utiliza tiempos de espera definidos entre cambi...">
<polygon fill="white" stroke="#666666" points="169.62,-77 114.62,-77 114.62,-57 169.62,-57 169.62,-77"/>
<text text-anchor="middle" x="142.12" y="-63.5" font-family="Helvetica,sans-Serif" font-size="10.00">lucecitas</text>
</a>
</g>
</g>
<!-- Node1&#45;&gt;Node6 -->
<g id="edge6_Node000001_Node000006" class="edge">
<title>Node1&#45;&gt;Node6</title>
<g id="a_edge6_Node000001_Node000006"><a xlink:title=" ">
<path fill="none" stroke="#63b8ff" d="M19.26,-208.75C22.74,-184.71 34.72,-124.21 70,-91 79.13,-82.4 91.45,-76.88 103.27,-73.33"/>
<polygon fill="#63b8ff" stroke="#63b8ff" points="104.04,-76.75 112.86,-70.87 102.3,-69.96 104.04,-76.75"/>
</a>
</g>
</g>
<!-- Node10 -->
<g id="Node000010" class="node">
<title>Node10</title>
<g id="a_Node000010"><a xlink:href="class_medidor.html#a203ae9be3a2bf0965bd9316fcd203e19" target="_top" xlink:title="Medir el nivel de CO2.">
<polygon fill="white" stroke="#666666" points="192.5,-191 91.75,-191 91.75,-171 192.5,-171 192.5,-191"/>
<text text-anchor="middle" x="142.12" y="-177.5" font-family="Helvetica,sans-Serif" font-size="10.00">Medidor::medirCO2</text>
</a>
</g>
</g>
<!-- Node1&#45;&gt;Node10 -->
<g id="edge12_Node000001_Node000010" class="edge">
<title>Node1&#45;&gt;Node10</title>
<g id="a_edge12_Node000001_Node000010"><a xlink:title=" ">
<path fill="none" stroke="#63b8ff" d="M34.35,-213.95C50.11,-209.09 74.69,-201.5 96.3,-194.83"/>
<polygon fill="#63b8ff" stroke="#63b8ff" points="97.29,-198.19 105.82,-191.9 95.23,-191.5 97.29,-198.19"/>
</a>
</g>
</g>
<!-- Node11 -->
<g id="Node000011" class="node">
<title>Node11</title>
<g id="a_Node000011"><a xlink:href="class_medidor.html#a742eaebe02e1d1d67df55f7a73878421" target="_top" xlink:title="Medir la temperatura.">
<polygon fill="white" stroke="#666666" points="209.38,-153 74.88,-153 74.88,-133 209.38,-133 209.38,-153"/>
<text text-anchor="middle" x="142.12" y="-139.5" font-family="Helvetica,sans-Serif" font-size="10.00">Medidor::medirTemperatura</text>
</a>
</g>
</g>
<!-- Node1&#45;&gt;Node11 -->
<g id="edge13_Node000001_Node000011" class="edge">
<title>Node1&#45;&gt;Node11</title>
<g id="a_edge13_Node000001_Node000011"><a xlink:title=" ">
<path fill="none" stroke="#63b8ff" d="M24.46,-208.93C33.22,-196.09 50.08,-174.11 70,-162 72.57,-160.44 75.28,-159 78.06,-157.68"/>
<polygon fill="#63b8ff" stroke="#63b8ff" points="79.13,-161.02 87.03,-153.97 76.45,-154.56 79.13,-161.02"/>
</a>
</g>
</g>
<!-- Node12 -->
<g id="Node000012" class="node">
<title>Node12</title>
<g id="a_Node000012"><a xlink:href="class_publicador.html#a2ed2009b9cec631024263659be882985" target="_top" xlink:title="Publica un valor de CO2 mediante un anuncio iBeacon.">
<polygon fill="white" stroke="#666666" points="388.88,-248 267.12,-248 267.12,-228 388.88,-228 388.88,-248"/>
<text text-anchor="middle" x="328" y="-234.5" font-family="Helvetica,sans-Serif" font-size="10.00">Publicador::publicarCO2</text>
</a>
</g>
</g>
<!-- Node1&#45;&gt;Node12 -->
<g id="edge14_Node000001_Node000012" class="edge">
<title>Node1&#45;&gt;Node12</title>
<g id="a_edge14_Node000001_Node000012"><a xlink:title=" ">
<path fill="none" stroke="#63b8ff" d="M34.18,-224.45C44.34,-227.6 57.78,-231.26 70,-233 132.13,-241.83 203.54,-242.47 255.3,-241.25"/>
<polygon fill="#63b8ff" stroke="#63b8ff" points="255.28,-244.75 265.18,-240.99 255.09,-237.76 255.28,-244.75"/>
</a>
</g>
</g>
<!-- Node13 -->
<g id="Node000013" class="node">
<title>Node13</title>
<g id="a_Node000013"><a xlink:href="class_publicador.html#a674ec7d8321b9792835cd935c6196dec" target="_top" xlink:title="Publica un valor de temperatura mediante un anuncio iBeacon.">
<polygon fill="white" stroke="#666666" points="405.75,-191 250.25,-191 250.25,-171 405.75,-171 405.75,-191"/>
<text text-anchor="middle" x="328" y="-177.5" font-family="Helvetica,sans-Serif" font-size="10.00">Publicador::publicarTemperatura</text>
</a>
</g>
</g>
<!-- Node1&#45;&gt;Node13 -->
<g id="edge16_Node000001_Node000013" class="edge">
<title>Node1&#45;&gt;Node13</title>
<g id="a_edge16_Node000001_Node000013"><a xlink:title=" ">
<path fill="none" stroke="#63b8ff" d="M34.33,-217.81C68.04,-215.27 147.74,-208.81 214.25,-200 228.6,-198.1 243.92,-195.74 258.5,-193.34"/>
<polygon fill="#63b8ff" stroke="#63b8ff" points="258.69,-196.85 267.98,-191.75 257.54,-189.95 258.69,-196.85"/>
</a>
</g>
</g>
<!-- Node3&#45;&gt;Node4 -->
<g id="edge3_Node000003_Node000004" class="edge">
<title>Node3&#45;&gt;Node4</title>
<g id="a_edge3_Node000003_Node000004"><a xlink:title=" ">
<path fill="none" stroke="#63b8ff" d="M210.55,-309.07C228.12,-311.17 246.98,-313.43 264.3,-315.5"/>
<polygon fill="#63b8ff" stroke="#63b8ff" points="263.58,-318.94 273.92,-316.65 264.41,-311.99 263.58,-318.94"/>
</a>
</g>
</g>
<!-- Node6&#45;&gt;Node5 -->
<g id="edge11_Node000006_Node000005" class="edge">
<title>Node6&#45;&gt;Node5</title>
<g id="a_edge11_Node000006_Node000005"><a xlink:title=" ">
<path fill="none" stroke="#63b8ff" d="M170.06,-68.64C217.73,-71.73 320.03,-79.17 405.75,-91 419.22,-92.86 433.94,-95.45 446.78,-97.9"/>
<polygon fill="#63b8ff" stroke="#63b8ff" points="445.99,-101.32 456.47,-99.8 447.33,-94.45 445.99,-101.32"/>
</a>
</g>
</g>
<!-- Node7 -->
<g id="Node000007" class="node">
<title>Node7</title>
<g id="a_Node000007"><a xlink:href="class_l_e_d.html#a7431e9efb39a2890f75b4e235b8f617e" target="_top" xlink:title="Hace que el LED brille por un tiempo determinado.">
<polygon fill="white" stroke="#666666" points="360.38,-39 295.62,-39 295.62,-19 360.38,-19 360.38,-39"/>
<text text-anchor="middle" x="328" y="-25.5" font-family="Helvetica,sans-Serif" font-size="10.00">LED::brillar</text>
</a>
</g>
</g>
<!-- Node6&#45;&gt;Node7 -->
<g id="edge7_Node000006_Node000007" class="edge">
<title>Node6&#45;&gt;Node7</title>
<g id="a_edge7_Node000006_Node000007"><a xlink:title=" ">
<path fill="none" stroke="#63b8ff" d="M169.86,-61.47C199.88,-55.27 249.01,-45.12 284.34,-37.82"/>
<polygon fill="#63b8ff" stroke="#63b8ff" points="284.72,-41.31 293.81,-35.86 283.31,-34.46 284.72,-41.31"/>
</a>
</g>
</g>
<!-- Node7&#45;&gt;Node5 -->
<g id="edge10_Node000007_Node000005" class="edge">
<title>Node7&#45;&gt;Node5</title>
<g id="a_edge10_Node000007_Node000005"><a xlink:title=" ">
<path fill="none" stroke="#63b8ff" d="M360.81,-36.64C374.95,-40.61 391.56,-46.1 405.75,-53 425.26,-62.49 445.41,-76.6 460,-87.72"/>
<polygon fill="#63b8ff" stroke="#63b8ff" points="457.49,-90.21 467.53,-93.6 461.8,-84.69 457.49,-90.21"/>
</a>
</g>
</g>
<!-- Node8 -->
<g id="Node000008" class="node">
<title>Node8</title>
<g id="a_Node000008"><a xlink:href="class_l_e_d.html#a7f961959fa7405fec54de6121415db80" target="_top" xlink:title="Apaga el LED.">
<polygon fill="white" stroke="#666666" points="517.75,-58 447,-58 447,-38 517.75,-38 517.75,-58"/>
<text text-anchor="middle" x="482.38" y="-44.5" font-family="Helvetica,sans-Serif" font-size="10.00">LED::apagar</text>
</a>
</g>
</g>
<!-- Node7&#45;&gt;Node8 -->
<g id="edge8_Node000007_Node000008" class="edge">
<title>Node7&#45;&gt;Node8</title>
<g id="a_edge8_Node000007_Node000008"><a xlink:title=" ">
<path fill="none" stroke="#63b8ff" d="M360.57,-32.94C382.15,-35.63 411.09,-39.24 435.24,-42.25"/>
<polygon fill="#63b8ff" stroke="#63b8ff" points="434.8,-45.72 445.15,-43.48 435.66,-38.77 434.8,-45.72"/>
</a>
</g>
</g>
<!-- Node9 -->
<g id="Node000009" class="node">
<title>Node9</title>
<g id="a_Node000009"><a xlink:href="class_l_e_d.html#a58660bafc0f4d6016392feabac555812" target="_top" xlink:title="Enciende el LED.">
<polygon fill="white" stroke="#666666" points="523,-20 441.75,-20 441.75,0 523,0 523,-20"/>
<text text-anchor="middle" x="482.38" y="-6.5" font-family="Helvetica,sans-Serif" font-size="10.00">LED::encender</text>
</a>
</g>
</g>
<!-- Node7&#45;&gt;Node9 -->
<g id="edge9_Node000007_Node000009" class="edge">
<title>Node7&#45;&gt;Node9</title>
<g id="a_edge9_Node000007_Node000009"><a xlink:title=" ">
<path fill="none" stroke="#63b8ff" d="M360.57,-25.06C380.63,-22.56 407.06,-19.27 430.09,-16.4"/>
<polygon fill="#63b8ff" stroke="#63b8ff" points="430.42,-19.88 439.91,-15.17 429.56,-12.93 430.42,-19.88"/>
</a>
</g>
</g>
<!-- Node12&#45;&gt;Node5 -->
<g id="edge15_Node000012_Node000005" class="edge">
<title>Node12&#45;&gt;Node5</title>
<g id="a_edge15_Node000012_Node000005"><a xlink:title=" ">
<path fill="none" stroke="#63b8ff" d="M357.36,-227.5C372.65,-221.01 391.29,-211.67 405.75,-200 432.43,-178.46 455.74,-145.95 469.18,-125.09"/>
<polygon fill="#63b8ff" stroke="#63b8ff" points="472.13,-126.99 474.48,-116.65 466.2,-123.26 472.13,-126.99"/>
</a>
</g>
</g>
<!-- Node13&#45;&gt;Node5 -->
<g id="edge17_Node000013_Node000005" class="edge">
<title>Node13&#45;&gt;Node5</title>
<g id="a_edge17_Node000013_Node000005"><a xlink:title=" ">
<path fill="none" stroke="#63b8ff" d="M349.87,-170.59C375.97,-157.57 420.87,-135.18 450.84,-120.23"/>
<polygon fill="#63b8ff" stroke="#63b8ff" points="452.02,-123.55 459.41,-115.96 448.89,-117.29 452.02,-123.55"/>
</a>
</g>
</g>
</g>
</svg>
