<?xml version="1.0" encoding="UTF-8" standalone="no"?>
<!DOCTYPE svg PUBLIC "-//W3C//DTD SVG 1.1//EN"
 "http://www.w3.org/Graphics/SVG/1.1/DTD/svg11.dtd">
<!-- Generated by graphviz version 12.1.1 (20240910.0053)
 -->
<!-- Title: esperar Pages: 1 -->
<svg width="419pt" height="218pt"
 viewBox="0.00 0.00 418.50 218.00" xmlns="http://www.w3.org/2000/svg" xmlns:xlink="http://www.w3.org/1999/xlink">

<svg id="main" version="1.1" xmlns="http://www.w3.org/2000/svg" xmlns:xlink="http://www.w3.org/1999/xlink" xml:space="preserve">

<style type="text/css"><![CDATA[
.node, .edge {opacity: 0.7;}
.node.selected, .edge.selected {opacity: 1;}
.edge:hover path { stroke: red; }
.edge:hover polygon { stroke: red; fill: red; }
]]></style>
<script type="application/ecmascript" xlink:href="svg.min.js"/>
<svg id="graph" class="graph">
<g id="graph0" class="graph" transform="scale(1 1) rotate(0) translate(4 214)">
<title>esperar</title>
<!-- Node1 -->
<g id="Node000001" class="node">
<title>Node1</title>
<g id="a_Node000001"><a xlink:title="Función auxiliar para pausar la ejecución por un tiempo determinado.">
<polygon fill="#999999" stroke="#666666" points="410.5,-115 362.25,-115 362.25,-95 410.5,-95 410.5,-115"/>
<text text-anchor="middle" x="386.38" y="-101.5" font-family="Helvetica,sans-Serif" font-size="10.00">esperar</text>
</a>
</g>
</g>
<!-- Node2 -->
<g id="Node000002" class="node">
<title>Node2</title>
<g id="a_Node000002"><a xlink:href="class_l_e_d.html#a7431e9efb39a2890f75b4e235b8f617e" target="_top" xlink:title="Hace que el LED brille por un tiempo determinado.">
<polygon fill="white" stroke="#666666" points="326.25,-210 261.5,-210 261.5,-190 326.25,-190 326.25,-210"/>
<text text-anchor="middle" x="293.88" y="-196.5" font-family="Helvetica,sans-Serif" font-size="10.00">LED::brillar</text>
</a>
</g>
</g>
<!-- Node1&#45;&gt;Node2 -->
<g id="edge1_Node000001_Node000002" class="edge">
<title>Node1&#45;&gt;Node2</title>
<g id="a_edge1_Node000001_Node000002"><a xlink:title=" ">
<path fill="none" stroke="#63b8ff" d="M371.37,-124.08C360.01,-138.97 343.15,-159.78 326.25,-176 321.2,-180.84 315.2,-185.64 309.8,-189.65"/>
<polygon fill="#63b8ff" stroke="#63b8ff" points="373.88,-126.56 377.08,-116.46 368.28,-122.36 373.88,-126.56"/>
</a>
</g>
</g>
<!-- Node3 -->
<g id="Node000003" class="node">
<title>Node3</title>
<g id="a_Node000003"><a xlink:href="_hola_mundo_i_beacon_8ino.html#a27ffed2fef5d69b87e240022e59c59ff" target="_top" xlink:title="Realiza una secuencia de encendido y apagado del LED. Utiliza tiempos de espera definidos entre cambi...">
<polygon fill="white" stroke="#666666" points="175.25,-172 120.25,-172 120.25,-152 175.25,-152 175.25,-172"/>
<text text-anchor="middle" x="147.75" y="-158.5" font-family="Helvetica,sans-Serif" font-size="10.00">lucecitas</text>
</a>
</g>
</g>
<!-- Node1&#45;&gt;Node3 -->
<g id="edge5_Node000001_Node000003" class="edge">
<title>Node1&#45;&gt;Node3</title>
<g id="a_edge5_Node000001_Node000003"><a xlink:title=" ">
<path fill="none" stroke="#63b8ff" d="M361.02,-121.31C350.7,-127.48 338.29,-133.99 326.25,-138 274.77,-155.16 211,-160.08 175.61,-161.47"/>
<polygon fill="#63b8ff" stroke="#63b8ff" points="362.64,-124.42 369.26,-116.15 358.93,-118.49 362.64,-124.42"/>
</a>
</g>
</g>
<!-- Node4 -->
<g id="Node000004" class="node">
<title>Node4</title>
<g id="a_Node000004"><a xlink:href="_hola_mundo_i_beacon_8ino.html#afe461d27b9c48d5921c00d521181f12f" target="_top" xlink:title="Función principal (loop) del programa. Ejecuta mediciones de CO2 y temperatura, publica los datos vía...">
<polygon fill="white" stroke="#666666" points="34,-115 0,-115 0,-95 34,-95 34,-115"/>
<text text-anchor="middle" x="17" y="-101.5" font-family="Helvetica,sans-Serif" font-size="10.00">loop</text>
</a>
</g>
</g>
<!-- Node1&#45;&gt;Node4 -->
<g id="edge4_Node000001_Node000004" class="edge">
<title>Node1&#45;&gt;Node4</title>
<g id="a_edge4_Node000001_Node000004"><a xlink:title=" ">
<path fill="none" stroke="#63b8ff" d="M350.58,-108.43C342.59,-109.09 334.13,-109.67 326.25,-110 214.75,-114.71 80.4,-108.43 34.38,-105.94"/>
<polygon fill="#63b8ff" stroke="#63b8ff" points="350.65,-111.94 360.3,-107.58 350.04,-104.97 350.65,-111.94"/>
</a>
</g>
</g>
<!-- Node5 -->
<g id="Node000005" class="node">
<title>Node5</title>
<g id="a_Node000005"><a xlink:href="class_publicador.html#a2ed2009b9cec631024263659be882985" target="_top" xlink:title="Publica un valor de CO2 mediante un anuncio iBeacon.">
<polygon fill="white" stroke="#666666" points="208.62,-96 86.88,-96 86.88,-76 208.62,-76 208.62,-96"/>
<text text-anchor="middle" x="147.75" y="-82.5" font-family="Helvetica,sans-Serif" font-size="10.00">Publicador::publicarCO2</text>
</a>
</g>
</g>
<!-- Node1&#45;&gt;Node5 -->
<g id="edge6_Node000001_Node000005" class="edge">
<title>Node1&#45;&gt;Node5</title>
<g id="a_edge6_Node000001_Node000005"><a xlink:title=" ">
<path fill="none" stroke="#63b8ff" d="M350.6,-102.21C313.45,-99.22 253.88,-94.44 209.06,-90.84"/>
<polygon fill="#63b8ff" stroke="#63b8ff" points="350.06,-105.68 360.31,-102.99 350.62,-98.7 350.06,-105.68"/>
</a>
</g>
</g>
<!-- Node6 -->
<g id="Node000006" class="node">
<title>Node6</title>
<g id="a_Node000006"><a xlink:href="class_publicador.html#a674ec7d8321b9792835cd935c6196dec" target="_top" xlink:title="Publica un valor de temperatura mediante un anuncio iBeacon.">
<polygon fill="white" stroke="#666666" points="225.5,-58 70,-58 70,-38 225.5,-38 225.5,-58"/>
<text text-anchor="middle" x="147.75" y="-44.5" font-family="Helvetica,sans-Serif" font-size="10.00">Publicador::publicarTemperatura</text>
</a>
</g>
</g>
<!-- Node1&#45;&gt;Node6 -->
<g id="edge8_Node000001_Node000006" class="edge">
<title>Node1&#45;&gt;Node6</title>
<g id="a_edge8_Node000001_Node000006"><a xlink:title=" ">
<path fill="none" stroke="#63b8ff" d="M350.78,-96.67C308.75,-86.54 237.82,-69.45 192.16,-58.46"/>
<polygon fill="#63b8ff" stroke="#63b8ff" points="349.81,-100.03 360.35,-98.97 351.45,-93.23 349.81,-100.03"/>
</a>
</g>
</g>
<!-- Node7 -->
<g id="Node000007" class="node">
<title>Node7</title>
<g id="a_Node000007"><a xlink:href="_hola_mundo_i_beacon_8ino.html#a4fc01d736fe50cf5b977f755b675f11d" target="_top" xlink:title="Función de configuración (setup). Inicializa los módulos de comunicación, medición y publicación.">
<polygon fill="white" stroke="#666666" points="313.88,-20 273.88,-20 273.88,0 313.88,0 313.88,-20"/>
<text text-anchor="middle" x="293.88" y="-6.5" font-family="Helvetica,sans-Serif" font-size="10.00">setup</text>
</a>
</g>
</g>
<!-- Node1&#45;&gt;Node7 -->
<g id="edge10_Node000001_Node000007" class="edge">
<title>Node1&#45;&gt;Node7</title>
<g id="a_edge10_Node000001_Node000007"><a xlink:title=" ">
<path fill="none" stroke="#63b8ff" d="M371.37,-85.92C360.01,-71.03 343.15,-50.22 326.25,-34 321.2,-29.16 315.2,-24.36 309.8,-20.35"/>
<polygon fill="#63b8ff" stroke="#63b8ff" points="368.28,-87.64 377.08,-93.54 373.88,-83.44 368.28,-87.64"/>
</a>
</g>
</g>
<!-- Node2&#45;&gt;Node3 -->
<g id="edge2_Node000002_Node000003" class="edge">
<title>Node2&#45;&gt;Node3</title>
<g id="a_edge2_Node000002_Node000003"><a xlink:title=" ">
<path fill="none" stroke="#63b8ff" d="M250.2,-188.75C225.98,-182.36 196.42,-174.57 175.47,-169.04"/>
<polygon fill="#63b8ff" stroke="#63b8ff" points="249.22,-192.11 259.78,-191.27 251.01,-185.34 249.22,-192.11"/>
</a>
</g>
</g>
<!-- Node3&#45;&gt;Node4 -->
<g id="edge3_Node000003_Node000004" class="edge">
<title>Node3&#45;&gt;Node4</title>
<g id="a_edge3_Node000003_Node000004"><a xlink:title=" ">
<path fill="none" stroke="#63b8ff" d="M109.1,-152.37C96.41,-148.57 82.34,-143.72 70,-138 56.42,-131.7 42.14,-122.42 31.99,-115.31"/>
<polygon fill="#63b8ff" stroke="#63b8ff" points="107.79,-155.64 118.37,-155.03 109.72,-148.91 107.79,-155.64"/>
</a>
</g>
</g>
<!-- Node5&#45;&gt;Node4 -->
<g id="edge7_Node000005_Node000004" class="edge">
<title>Node5&#45;&gt;Node4</title>
<g id="a_edge7_Node000005_Node000004"><a xlink:title=" ">
<path fill="none" stroke="#63b8ff" d="M75.32,-96.54C59.99,-98.8 45.21,-100.98 34.5,-102.57"/>
<polygon fill="#63b8ff" stroke="#63b8ff" points="75.64,-100.03 85.02,-95.11 74.62,-93.11 75.64,-100.03"/>
</a>
</g>
</g>
<!-- Node6&#45;&gt;Node4 -->
<g id="edge9_Node000006_Node000004" class="edge">
<title>Node6&#45;&gt;Node4</title>
<g id="a_edge9_Node000006_Node000004"><a xlink:title=" ">
<path fill="none" stroke="#63b8ff" d="M82.33,-61.96C78.09,-63.48 73.95,-65.16 70,-67 54.8,-74.1 39.56,-85.92 29.55,-94.5"/>
<polygon fill="#63b8ff" stroke="#63b8ff" points="83.12,-65.38 91.54,-58.94 80.95,-58.72 83.12,-65.38"/>
</a>
</g>
</g>
</g>
</svg>
</svg>

<style type='text/css'>
<![CDATA[
[data-mouse-over-selected='false'] { opacity: 0.7; }
[data-mouse-over-selected='true']  { opacity: 1.0; }
]]>
</style>
<script type="application/ecmascript"><![CDATA[
document.addEventListener('DOMContentLoaded', (event) => {
  highlightEdges();
  highlightAdjacentNodes();
});
]]></script>
</svg>
