<?xml version="1.0" encoding="UTF-8" standalone="no"?>
<!DOCTYPE svg PUBLIC "-//W3C//DTD SVG 1.1//EN"
 "http://www.w3.org/Graphics/SVG/1.1/DTD/svg11.dtd">
<!-- Generated by graphviz version 12.1.1 (20240910.0053)
 -->
<!-- Title: HolaMundoIBeacon/ServicioEnEmisora.h Pages: 1 -->
<svg width="162pt" height="176pt"
 viewBox="0.00 0.00 162.00 176.00" xmlns="http://www.w3.org/2000/svg" xmlns:xlink="http://www.w3.org/1999/xlink">
<g id="graph0" class="graph" transform="scale(1 1) rotate(0) translate(4 172)">
<title>HolaMundoIBeacon/ServicioEnEmisora.h</title>
<!-- Node1 -->
<g id="Node000001" class="node">
<title>Node1</title>
<g id="a_Node000001"><a xlink:title="Definición de la clase ServicioEnEmisora y Clase que representa una característica dentro de un servi...">
<polygon fill="#999999" stroke="#666666" points="146.88,-168 7.12,-168 7.12,-136 146.88,-136 146.88,-168"/>
<text text-anchor="start" x="15.12" y="-154.5" font-family="Helvetica,sans-Serif" font-size="10.00">HolaMundoIBeacon/Servicio</text>
<text text-anchor="middle" x="77" y="-142.5" font-family="Helvetica,sans-Serif" font-size="10.00">EnEmisora.h</text>
</a>
</g>
</g>
<!-- Node2 -->
<g id="Node000002" class="node">
<title>Node2</title>
<g id="a_Node000002"><a xlink:href="_emisora_b_l_e_8h.html" target="_top" xlink:title="Clase para manejar la emisora BLE y la emisión de beacons.">
<polygon fill="white" stroke="#666666" points="147.25,-100 6.75,-100 6.75,-68 147.25,-68 147.25,-100"/>
<text text-anchor="start" x="14.75" y="-86.5" font-family="Helvetica,sans-Serif" font-size="10.00">HolaMundoIBeacon/Emisora</text>
<text text-anchor="middle" x="77" y="-74.5" font-family="Helvetica,sans-Serif" font-size="10.00">BLE.h</text>
</a>
</g>
</g>
<!-- Node1&#45;&gt;Node2 -->
<g id="edge1_Node000001_Node000002" class="edge">
<title>Node1&#45;&gt;Node2</title>
<g id="a_edge1_Node000001_Node000002"><a xlink:title=" ">
<path fill="none" stroke="#63b8ff" d="M77,-124.31C77,-116.12 77,-107.38 77,-100.22"/>
<polygon fill="#63b8ff" stroke="#63b8ff" points="73.5,-124.18 77,-134.18 80.5,-124.18 73.5,-124.18"/>
</a>
</g>
</g>
<!-- Node3 -->
<g id="Node000003" class="node">
<title>Node3</title>
<g id="a_Node000003"><a xlink:href="_hola_mundo_i_beacon_8ino.html" target="_top" xlink:title="Implementación principal del programa que utiliza BLE para publicar datos de sensores.">
<polygon fill="white" stroke="#666666" points="154,-32 0,-32 0,0 154,0 154,-32"/>
<text text-anchor="start" x="8" y="-18.5" font-family="Helvetica,sans-Serif" font-size="10.00">HolaMundoIBeacon/HolaMundo</text>
<text text-anchor="middle" x="77" y="-6.5" font-family="Helvetica,sans-Serif" font-size="10.00">IBeacon.ino</text>
</a>
</g>
</g>
<!-- Node2&#45;&gt;Node3 -->
<g id="edge2_Node000002_Node000003" class="edge">
<title>Node2&#45;&gt;Node3</title>
<g id="a_edge2_Node000002_Node000003"><a xlink:title=" ">
<path fill="none" stroke="#63b8ff" d="M77,-56.31C77,-48.12 77,-39.38 77,-32.22"/>
<polygon fill="#63b8ff" stroke="#63b8ff" points="73.5,-56.18 77,-66.18 80.5,-56.18 73.5,-56.18"/>
</a>
</g>
</g>
</g>
</svg>
