<?xml version="1.0" encoding="UTF-8" standalone="no"?>
<!DOCTYPE svg PUBLIC "-//W3C//DTD SVG 1.1//EN"
 "http://www.w3.org/Graphics/SVG/1.1/DTD/svg11.dtd">
<!-- Generated by graphviz version 12.1.1 (20240910.0053)
 -->
<!-- Title: LED::brillar Pages: 1 -->
<svg width="190pt" height="104pt"
 viewBox="0.00 0.00 190.00 104.00" xmlns="http://www.w3.org/2000/svg" xmlns:xlink="http://www.w3.org/1999/xlink">
<g id="graph0" class="graph" transform="scale(1 1) rotate(0) translate(4 100)">
<title>LED::brillar</title>
<!-- Node1 -->
<g id="Node000001" class="node">
<title>Node1</title>
<g id="a_Node000001"><a xlink:title="Hace que el LED brille por un tiempo determinado.">
<polygon fill="#999999" stroke="#666666" points="64.75,-58 0,-58 0,-38 64.75,-38 64.75,-58"/>
<text text-anchor="middle" x="32.38" y="-44.5" font-family="Helvetica,sans-Serif" font-size="10.00">LED::brillar</text>
</a>
</g>
</g>
<!-- Node2 -->
<g id="Node000002" class="node">
<title>Node2</title>
<g id="a_Node000002"><a xlink:href="class_l_e_d.html#a7f961959fa7405fec54de6121415db80" target="_top" xlink:title="Apaga el LED.">
<polygon fill="white" stroke="#666666" points="176.75,-96 106,-96 106,-76 176.75,-76 176.75,-96"/>
<text text-anchor="middle" x="141.38" y="-82.5" font-family="Helvetica,sans-Serif" font-size="10.00">LED::apagar</text>
</a>
</g>
</g>
<!-- Node1&#45;&gt;Node2 -->
<g id="edge1_Node000001_Node000002" class="edge">
<title>Node1&#45;&gt;Node2</title>
<g id="a_edge1_Node000001_Node000002"><a xlink:title=" ">
<path fill="none" stroke="#63b8ff" d="M62.9,-58.48C74.47,-62.6 87.94,-67.38 100.37,-71.79"/>
<polygon fill="#63b8ff" stroke="#63b8ff" points="98.93,-74.99 109.52,-75.04 101.27,-68.4 98.93,-74.99"/>
</a>
</g>
</g>
<!-- Node3 -->
<g id="Node000003" class="node">
<title>Node3</title>
<g id="a_Node000003"><a xlink:href="class_l_e_d.html#a58660bafc0f4d6016392feabac555812" target="_top" xlink:title="Enciende el LED.">
<polygon fill="white" stroke="#666666" points="182,-58 100.75,-58 100.75,-38 182,-38 182,-58"/>
<text text-anchor="middle" x="141.38" y="-44.5" font-family="Helvetica,sans-Serif" font-size="10.00">LED::encender</text>
</a>
</g>
</g>
<!-- Node1&#45;&gt;Node3 -->
<g id="edge2_Node000001_Node000003" class="edge">
<title>Node1&#45;&gt;Node3</title>
<g id="a_edge2_Node000001_Node000003"><a xlink:title=" ">
<path fill="none" stroke="#63b8ff" d="M65.19,-48C72.73,-48 80.95,-48 89.11,-48"/>
<polygon fill="#63b8ff" stroke="#63b8ff" points="89.01,-51.5 99.01,-48 89.01,-44.5 89.01,-51.5"/>
</a>
</g>
</g>
<!-- Node4 -->
<g id="Node000004" class="node">
<title>Node4</title>
<g id="a_Node000004"><a xlink:href="_l_e_d_8h.html#a2fb17dd710d89b92e59a349551733fa0" target="_top" xlink:title="Función auxiliar para pausar la ejecución por un tiempo determinado.">
<polygon fill="white" stroke="#666666" points="165.5,-20 117.25,-20 117.25,0 165.5,0 165.5,-20"/>
<text text-anchor="middle" x="141.38" y="-6.5" font-family="Helvetica,sans-Serif" font-size="10.00">esperar</text>
</a>
</g>
</g>
<!-- Node1&#45;&gt;Node4 -->
<g id="edge3_Node000001_Node000004" class="edge">
<title>Node1&#45;&gt;Node4</title>
<g id="a_edge3_Node000001_Node000004"><a xlink:title=" ">
<path fill="none" stroke="#63b8ff" d="M62.9,-37.52C76.37,-32.73 92.4,-27.04 106.37,-22.08"/>
<polygon fill="#63b8ff" stroke="#63b8ff" points="107.37,-25.44 115.62,-18.79 105.03,-18.84 107.37,-25.44"/>
</a>
</g>
</g>
</g>
</svg>
