<?xml version="1.0" encoding="UTF-8" standalone="no"?>
<!DOCTYPE svg PUBLIC "-//W3C//DTD SVG 1.1//EN"
 "http://www.w3.org/Graphics/SVG/1.1/DTD/svg11.dtd">
<!-- Generated by graphviz version 12.1.1 (20240910.0053)
 -->
<!-- Title: ServicioEnEmisora::Caracteristica::asignarPermisos Pages: 1 -->
<svg width="547pt" height="52pt"
 viewBox="0.00 0.00 547.25 52.00" xmlns="http://www.w3.org/2000/svg" xmlns:xlink="http://www.w3.org/1999/xlink">
<g id="graph0" class="graph" transform="scale(1 1) rotate(0) translate(4 48)">
<title>ServicioEnEmisora::Caracteristica::asignarPermisos</title>
<!-- Node1 -->
<g id="Node000001" class="node">
<title>Node1</title>
<g id="a_Node000001"><a xlink:title=" ">
<polygon fill="#999999" stroke="#666666" points="539.25,-38 383.75,-38 383.75,-6 539.25,-6 539.25,-38"/>
<text text-anchor="start" x="391.75" y="-24.5" font-family="Helvetica,sans-Serif" font-size="10.00">ServicioEnEmisora::</text>
<text text-anchor="middle" x="461.5" y="-12.5" font-family="Helvetica,sans-Serif" font-size="10.00">Caracteristica::asignarPermisos</text>
</a>
</g>
</g>
<!-- Node2 -->
<g id="Node000002" class="node">
<title>Node2</title>
<g id="a_Node000002"><a xlink:href="class_servicio_en_emisora_1_1_caracteristica.html#a7fe53370615887c50304300457c1114c" target="_top" xlink:title="Asigna propiedades, permisos y tamaño de datos de la característica.">
<polygon fill="white" stroke="#666666" points="347.75,-44 179.5,-44 179.5,0 347.75,0 347.75,-44"/>
<text text-anchor="start" x="187.5" y="-30.5" font-family="Helvetica,sans-Serif" font-size="10.00">ServicioEnEmisora::</text>
<text text-anchor="start" x="187.5" y="-18.5" font-family="Helvetica,sans-Serif" font-size="10.00">Caracteristica::asignarPropiedades</text>
<text text-anchor="middle" x="263.62" y="-6.5" font-family="Helvetica,sans-Serif" font-size="10.00">PermisosYTamanyoDatos</text>
</a>
</g>
</g>
<!-- Node1&#45;&gt;Node2 -->
<g id="edge1_Node000001_Node000002" class="edge">
<title>Node1&#45;&gt;Node2</title>
<g id="a_edge1_Node000001_Node000002"><a xlink:title=" ">
<path fill="none" stroke="#63b8ff" d="M371.88,-22C363.98,-22 356,-22 348.15,-22"/>
<polygon fill="#63b8ff" stroke="#63b8ff" points="371.85,-25.5 381.85,-22 371.85,-18.5 371.85,-25.5"/>
</a>
</g>
</g>
<!-- Node3 -->
<g id="Node000003" class="node">
<title>Node3</title>
<g id="a_Node000003"><a xlink:href="class_servicio_en_emisora_1_1_caracteristica.html#a646c15ae6b57fc25d144d2e2ed160c0c" target="_top" xlink:title="Constructor que permite definir propiedades y permisos de la característica.">
<polygon fill="white" stroke="#666666" points="143.5,-38 0,-38 0,-6 143.5,-6 143.5,-38"/>
<text text-anchor="start" x="8" y="-24.5" font-family="Helvetica,sans-Serif" font-size="10.00">ServicioEnEmisora::</text>
<text text-anchor="middle" x="71.75" y="-12.5" font-family="Helvetica,sans-Serif" font-size="10.00">Caracteristica::Caracteristica</text>
</a>
</g>
</g>
<!-- Node2&#45;&gt;Node3 -->
<g id="edge2_Node000002_Node000003" class="edge">
<title>Node2&#45;&gt;Node3</title>
<g id="a_edge2_Node000002_Node000003"><a xlink:title=" ">
<path fill="none" stroke="#63b8ff" d="M167.74,-22C159.71,-22 151.67,-22 143.87,-22"/>
<polygon fill="#63b8ff" stroke="#63b8ff" points="167.55,-25.5 177.55,-22 167.55,-18.5 167.55,-25.5"/>
</a>
</g>
</g>
</g>
</svg>
