<?xml version="1.0" encoding="UTF-8" standalone="no"?>
<!DOCTYPE svg PUBLIC "-//W3C//DTD SVG 1.1//EN"
 "http://www.w3.org/Graphics/SVG/1.1/DTD/svg11.dtd">
<!-- Generated by graphviz version 12.1.1 (20240910.0053)
 -->
<!-- Title: Publicador Pages: 1 -->
<svg width="200pt" height="500pt"
 viewBox="0.00 0.00 200.00 500.00" xmlns="http://www.w3.org/2000/svg" xmlns:xlink="http://www.w3.org/1999/xlink">
<g id="graph0" class="graph" transform="scale(1 1) rotate(0) translate(4 496)">
<title>Publicador</title>
<!-- Node1 -->
<g id="Node000001" class="node">
<title>Node1</title>
<g id="a_Node000001"><a xlink:title="Clase para publicar mediciones de CO2 y temperatura mediante BLE.">
<polygon fill="#999999" stroke="none" points="151.5,-116 40.5,-116 40.5,0 151.5,0 151.5,-116"/>
<text text-anchor="start" x="73.12" y="-102.5" font-family="Helvetica,sans-Serif" font-size="10.00">Publicador</text>
<text text-anchor="start" x="44.5" y="-86.5" font-family="Helvetica,sans-Serif" font-size="10.00">+</text>
<text text-anchor="start" x="54.5" y="-86.5" font-family="Helvetica,sans-Serif" font-size="10.00">RSSI</text>
<text text-anchor="start" x="46" y="-70.5" font-family="Helvetica,sans-Serif" font-size="10.00">&#45;</text>
<text text-anchor="start" x="54.5" y="-70.5" font-family="Helvetica,sans-Serif" font-size="10.00">beaconUUID</text>
<text text-anchor="start" x="44.5" y="-54.5" font-family="Helvetica,sans-Serif" font-size="10.00">+</text>
<text text-anchor="start" x="54.5" y="-54.5" font-family="Helvetica,sans-Serif" font-size="10.00">Publicador()</text>
<text text-anchor="start" x="44.5" y="-38.5" font-family="Helvetica,sans-Serif" font-size="10.00">+</text>
<text text-anchor="start" x="54.5" y="-38.5" font-family="Helvetica,sans-Serif" font-size="10.00">encenderEmisora()</text>
<text text-anchor="start" x="44.5" y="-22.5" font-family="Helvetica,sans-Serif" font-size="10.00">+</text>
<text text-anchor="start" x="54.5" y="-22.5" font-family="Helvetica,sans-Serif" font-size="10.00">publicarCO2()</text>
<text text-anchor="start" x="44.5" y="-6.5" font-family="Helvetica,sans-Serif" font-size="10.00">+</text>
<text text-anchor="start" x="54.5" y="-6.5" font-family="Helvetica,sans-Serif" font-size="10.00">publicarTemperatura()</text>
<polygon fill="#666666" stroke="#666666" points="40.5,-98 40.5,-98 151.5,-98 151.5,-98 40.5,-98"/>
<polygon fill="#666666" stroke="#666666" points="40.5,-66 40.5,-66 52.5,-66 52.5,-66 40.5,-66"/>
<polygon fill="#666666" stroke="#666666" points="52.5,-66 52.5,-66 151.5,-66 151.5,-66 52.5,-66"/>
<polygon fill="none" stroke="#666666" points="40.5,0 40.5,-116 151.5,-116 151.5,0 40.5,0"/>
</a>
</g>
</g>
<!-- Node2 -->
<g id="Node000002" class="node">
<title>Node2</title>
<g id="a_Node000002"><a xlink:href="class_emisora_b_l_e.html" target="_top" xlink:title="Clase para manejar la emisora Bluetooth Low Energy (BLE).">
<polygon fill="white" stroke="none" points="192,-492 0,-492 0,-164 192,-164 192,-492"/>
<text text-anchor="start" x="68.62" y="-478.5" font-family="Helvetica,sans-Serif" font-size="10.00">EmisoraBLE</text>
<text text-anchor="start" x="5.5" y="-462.5" font-family="Helvetica,sans-Serif" font-size="10.00">&#45;</text>
<text text-anchor="start" x="14" y="-462.5" font-family="Helvetica,sans-Serif" font-size="10.00">nombreEmisora</text>
<text text-anchor="start" x="5.5" y="-446.5" font-family="Helvetica,sans-Serif" font-size="10.00">&#45;</text>
<text text-anchor="start" x="14" y="-446.5" font-family="Helvetica,sans-Serif" font-size="10.00">fabricanteID</text>
<text text-anchor="start" x="5.5" y="-430.5" font-family="Helvetica,sans-Serif" font-size="10.00">&#45;</text>
<text text-anchor="start" x="14" y="-430.5" font-family="Helvetica,sans-Serif" font-size="10.00">txPower</text>
<text text-anchor="start" x="4" y="-414.5" font-family="Helvetica,sans-Serif" font-size="10.00">+</text>
<text text-anchor="start" x="14" y="-414.5" font-family="Helvetica,sans-Serif" font-size="10.00">EmisoraBLE()</text>
<text text-anchor="start" x="4" y="-398.5" font-family="Helvetica,sans-Serif" font-size="10.00">+</text>
<text text-anchor="start" x="14" y="-398.5" font-family="Helvetica,sans-Serif" font-size="10.00">encenderEmisora()</text>
<text text-anchor="start" x="4" y="-382.5" font-family="Helvetica,sans-Serif" font-size="10.00">+</text>
<text text-anchor="start" x="14" y="-382.5" font-family="Helvetica,sans-Serif" font-size="10.00">encenderEmisora()</text>
<text text-anchor="start" x="4" y="-366.5" font-family="Helvetica,sans-Serif" font-size="10.00">+</text>
<text text-anchor="start" x="14" y="-366.5" font-family="Helvetica,sans-Serif" font-size="10.00">detenerAnuncio()</text>
<text text-anchor="start" x="4" y="-350.5" font-family="Helvetica,sans-Serif" font-size="10.00">+</text>
<text text-anchor="start" x="14" y="-350.5" font-family="Helvetica,sans-Serif" font-size="10.00">estaAnunciando()</text>
<text text-anchor="start" x="4" y="-334.5" font-family="Helvetica,sans-Serif" font-size="10.00">+</text>
<text text-anchor="start" x="14" y="-334.5" font-family="Helvetica,sans-Serif" font-size="10.00">emitirAnuncioIBeacon()</text>
<text text-anchor="start" x="4" y="-318.5" font-family="Helvetica,sans-Serif" font-size="10.00">+</text>
<text text-anchor="start" x="14" y="-318.5" font-family="Helvetica,sans-Serif" font-size="10.00">emitirAnuncioIBeaconLibre()</text>
<text text-anchor="start" x="4" y="-302.5" font-family="Helvetica,sans-Serif" font-size="10.00">+</text>
<text text-anchor="start" x="14" y="-302.5" font-family="Helvetica,sans-Serif" font-size="10.00">anyadirServicio()</text>
<text text-anchor="start" x="4" y="-286.5" font-family="Helvetica,sans-Serif" font-size="10.00">+</text>
<text text-anchor="start" x="14" y="-286.5" font-family="Helvetica,sans-Serif" font-size="10.00">anyadirServicioConSusCaracteristicas()</text>
<text text-anchor="start" x="4" y="-270.5" font-family="Helvetica,sans-Serif" font-size="10.00">+</text>
<text text-anchor="start" x="14" y="-270.5" font-family="Helvetica,sans-Serif" font-size="10.00">anyadirServicioConSusCaracteristicas()</text>
<text text-anchor="start" x="4" y="-254.5" font-family="Helvetica,sans-Serif" font-size="10.00">+</text>
<text text-anchor="start" x="14" y="-254.5" font-family="Helvetica,sans-Serif" font-size="10.00">anyadirServicioConSusCaracteristicas</text>
<text text-anchor="start" x="14" y="-242.5" font-family="Helvetica,sans-Serif" font-size="10.00">YActivar()</text>
<text text-anchor="start" x="4" y="-226.5" font-family="Helvetica,sans-Serif" font-size="10.00">+</text>
<text text-anchor="start" x="14" y="-226.5" font-family="Helvetica,sans-Serif" font-size="10.00">instalarCallbackConexion</text>
<text text-anchor="start" x="14" y="-214.5" font-family="Helvetica,sans-Serif" font-size="10.00">Establecida()</text>
<text text-anchor="start" x="4" y="-198.5" font-family="Helvetica,sans-Serif" font-size="10.00">+</text>
<text text-anchor="start" x="14" y="-198.5" font-family="Helvetica,sans-Serif" font-size="10.00">instalarCallbackConexion</text>
<text text-anchor="start" x="14" y="-186.5" font-family="Helvetica,sans-Serif" font-size="10.00">Terminada()</text>
<text text-anchor="start" x="4" y="-170.5" font-family="Helvetica,sans-Serif" font-size="10.00">+</text>
<text text-anchor="start" x="14" y="-170.5" font-family="Helvetica,sans-Serif" font-size="10.00">getConexion()</text>
<polygon fill="#666666" stroke="#666666" points="0,-474 0,-474 192,-474 192,-474 0,-474"/>
<polygon fill="#666666" stroke="#666666" points="0,-426 0,-426 12,-426 12,-426 0,-426"/>
<polygon fill="#666666" stroke="#666666" points="12,-426 12,-426 192,-426 192,-426 12,-426"/>
<polygon fill="none" stroke="#666666" points="0,-164 0,-492 192,-492 192,-164 0,-164"/>
</a>
</g>
</g>
<!-- Node2&#45;&gt;Node1 -->
<g id="edge1_Node000001_Node000002" class="edge">
<title>Node2&#45;&gt;Node1</title>
<g id="a_edge1_Node000001_Node000002"><a xlink:title=" ">
<path fill="none" stroke="#63b8ff" d="M96,-164.15C96,-151.78 96,-139.76 96,-128.53"/>
<polygon fill="none" stroke="#63b8ff" points="96,-128.64 92,-122.64 96,-116.64 100,-122.64 96,-128.64"/>
</a>
</g>
<text text-anchor="middle" x="122.25" y="-136.5" font-family="Helvetica,sans-Serif" font-size="10.00" fill="grey"> +laEmisora</text>
</g>
</g>
</svg>
