<?xml version="1.0" encoding="UTF-8" standalone="no"?>
<!DOCTYPE svg PUBLIC "-//W3C//DTD SVG 1.1//EN"
 "http://www.w3.org/Graphics/SVG/1.1/DTD/svg11.dtd">
<!-- Generated by graphviz version 12.1.1 (20240910.0053)
 -->
<!-- Title: LED::apagar Pages: 1 -->
<svg width="350pt" height="104pt"
 viewBox="0.00 0.00 349.50 104.00" xmlns="http://www.w3.org/2000/svg" xmlns:xlink="http://www.w3.org/1999/xlink">

<svg id="main" version="1.1" xmlns="http://www.w3.org/2000/svg" xmlns:xlink="http://www.w3.org/1999/xlink" xml:space="preserve">

<style type="text/css"><![CDATA[
.node, .edge {opacity: 0.7;}
.node.selected, .edge.selected {opacity: 1;}
.edge:hover path { stroke: red; }
.edge:hover polygon { stroke: red; fill: red; }
]]></style>
<script type="application/ecmascript" xlink:href="svg.min.js"/>
<svg id="graph" class="graph">
<g id="graph0" class="graph" transform="scale(1 1) rotate(0) translate(4 100)">
<title>LED::apagar</title>
<!-- Node1 -->
<g id="Node000001" class="node">
<title>Node1</title>
<g id="a_Node000001"><a xlink:title="Apaga el LED.">
<polygon fill="#999999" stroke="#666666" points="341.5,-58 270.75,-58 270.75,-38 341.5,-38 341.5,-58"/>
<text text-anchor="middle" x="306.12" y="-44.5" font-family="Helvetica,sans-Serif" font-size="10.00">LED::apagar</text>
</a>
</g>
</g>
<!-- Node2 -->
<g id="Node000002" class="node">
<title>Node2</title>
<g id="a_Node000002"><a xlink:href="class_l_e_d.html#a9b1361dbee5de756d142b1a2c3e685da" target="_top" xlink:title="Alterna el estado del LED.">
<polygon fill="white" stroke="#666666" points="234.75,-96 161,-96 161,-76 234.75,-76 234.75,-96"/>
<text text-anchor="middle" x="197.88" y="-82.5" font-family="Helvetica,sans-Serif" font-size="10.00">LED::alternar</text>
</a>
</g>
</g>
<!-- Node1&#45;&gt;Node2 -->
<g id="edge1_Node000001_Node000002" class="edge">
<title>Node1&#45;&gt;Node2</title>
<g id="a_edge1_Node000001_Node000002"><a xlink:title=" ">
<path fill="none" stroke="#63b8ff" d="M265.3,-62.24C252.95,-66.66 239.58,-71.44 228.09,-75.55"/>
<polygon fill="#63b8ff" stroke="#63b8ff" points="266.15,-65.66 274.39,-58.99 263.79,-59.07 266.15,-65.66"/>
</a>
</g>
</g>
<!-- Node3 -->
<g id="Node000003" class="node">
<title>Node3</title>
<g id="a_Node000003"><a xlink:href="class_l_e_d.html#a7431e9efb39a2890f75b4e235b8f617e" target="_top" xlink:title="Hace que el LED brille por un tiempo determinado.">
<polygon fill="white" stroke="#666666" points="230.25,-58 165.5,-58 165.5,-38 230.25,-38 230.25,-58"/>
<text text-anchor="middle" x="197.88" y="-44.5" font-family="Helvetica,sans-Serif" font-size="10.00">LED::brillar</text>
</a>
</g>
</g>
<!-- Node1&#45;&gt;Node3 -->
<g id="edge2_Node000001_Node000003" class="edge">
<title>Node1&#45;&gt;Node3</title>
<g id="a_edge2_Node000001_Node000003"><a xlink:title=" ">
<path fill="none" stroke="#63b8ff" d="M258.89,-48C249.31,-48 239.42,-48 230.51,-48"/>
<polygon fill="#63b8ff" stroke="#63b8ff" points="258.82,-51.5 268.82,-48 258.82,-44.5 258.82,-51.5"/>
</a>
</g>
</g>
<!-- Node6 -->
<g id="Node000006" class="node">
<title>Node6</title>
<g id="a_Node000006"><a xlink:href="class_l_e_d.html#a027bcd6d546b47fd3ef22685ed1f73e2" target="_top" xlink:title="Constructor de la clase LED.">
<polygon fill="white" stroke="#666666" points="228.38,-20 167.38,-20 167.38,0 228.38,0 228.38,-20"/>
<text text-anchor="middle" x="197.88" y="-6.5" font-family="Helvetica,sans-Serif" font-size="10.00">LED::LED</text>
</a>
</g>
</g>
<!-- Node1&#45;&gt;Node6 -->
<g id="edge5_Node000001_Node000006" class="edge">
<title>Node1&#45;&gt;Node6</title>
<g id="a_edge5_Node000001_Node000006"><a xlink:title=" ">
<path fill="none" stroke="#63b8ff" d="M265.3,-33.76C252.95,-29.34 239.58,-24.56 228.09,-20.45"/>
<polygon fill="#63b8ff" stroke="#63b8ff" points="263.79,-36.93 274.39,-37.01 266.15,-30.34 263.79,-36.93"/>
</a>
</g>
</g>
<!-- Node4 -->
<g id="Node000004" class="node">
<title>Node4</title>
<g id="a_Node000004"><a xlink:href="_hola_mundo_i_beacon_8ino.html#a27ffed2fef5d69b87e240022e59c59ff" target="_top" xlink:title="Realiza una secuencia de encendido y apagado del LED. Utiliza tiempos de espera definidos entre cambi...">
<polygon fill="white" stroke="#666666" points="125,-58 70,-58 70,-38 125,-38 125,-58"/>
<text text-anchor="middle" x="97.5" y="-44.5" font-family="Helvetica,sans-Serif" font-size="10.00">lucecitas</text>
</a>
</g>
</g>
<!-- Node3&#45;&gt;Node4 -->
<g id="edge3_Node000003_Node000004" class="edge">
<title>Node3&#45;&gt;Node4</title>
<g id="a_edge3_Node000003_Node000004"><a xlink:title=" ">
<path fill="none" stroke="#63b8ff" d="M153.75,-48C144.14,-48 134.22,-48 125.48,-48"/>
<polygon fill="#63b8ff" stroke="#63b8ff" points="153.69,-51.5 163.69,-48 153.69,-44.5 153.69,-51.5"/>
</a>
</g>
</g>
<!-- Node5 -->
<g id="Node000005" class="node">
<title>Node5</title>
<g id="a_Node000005"><a xlink:href="_hola_mundo_i_beacon_8ino.html#afe461d27b9c48d5921c00d521181f12f" target="_top" xlink:title="Función principal (loop) del programa. Ejecuta mediciones de ozono y temperatura, publica los datos v...">
<polygon fill="white" stroke="#666666" points="34,-58 0,-58 0,-38 34,-38 34,-58"/>
<text text-anchor="middle" x="17" y="-44.5" font-family="Helvetica,sans-Serif" font-size="10.00">loop</text>
</a>
</g>
</g>
<!-- Node4&#45;&gt;Node5 -->
<g id="edge4_Node000004_Node000005" class="edge">
<title>Node4&#45;&gt;Node5</title>
<g id="a_edge4_Node000004_Node000005"><a xlink:title=" ">
<path fill="none" stroke="#63b8ff" d="M58.57,-48C50.09,-48 41.54,-48 34.48,-48"/>
<polygon fill="#63b8ff" stroke="#63b8ff" points="58.41,-51.5 68.41,-48 58.41,-44.5 58.41,-51.5"/>
</a>
</g>
</g>
</g>
</svg>
</svg>

<style type='text/css'>
<![CDATA[
[data-mouse-over-selected='false'] { opacity: 0.7; }
[data-mouse-over-selected='true']  { opacity: 1.0; }
]]>
</style>
<script type="application/ecmascript"><![CDATA[
document.addEventListener('DOMContentLoaded', (event) => {
  highlightEdges();
  highlightAdjacentNodes();
});
]]></script>
</svg>
