<?xml version="1.0" encoding="UTF-8" standalone="no"?>
<!DOCTYPE svg PUBLIC "-//W3C//DTD SVG 1.1//EN"
 "http://www.w3.org/Graphics/SVG/1.1/DTD/svg11.dtd">
<!-- Generated by graphviz version 12.1.1 (20240910.0053)
 -->
<!-- Title: LED::encender Pages: 1 -->
<svg width="360pt" height="66pt"
 viewBox="0.00 0.00 360.00 66.00" xmlns="http://www.w3.org/2000/svg" xmlns:xlink="http://www.w3.org/1999/xlink">
<g id="graph0" class="graph" transform="scale(1 1) rotate(0) translate(4 62)">
<title>LED::encender</title>
<!-- Node1 -->
<g id="Node000001" class="node">
<title>Node1</title>
<g id="a_Node000001"><a xlink:title="Enciende el LED.">
<polygon fill="#999999" stroke="#666666" points="352,-39 270.75,-39 270.75,-19 352,-19 352,-39"/>
<text text-anchor="middle" x="311.38" y="-25.5" font-family="Helvetica,sans-Serif" font-size="10.00">LED::encender</text>
</a>
</g>
</g>
<!-- Node2 -->
<g id="Node000002" class="node">
<title>Node2</title>
<g id="a_Node000002"><a xlink:href="class_l_e_d.html#a9b1361dbee5de756d142b1a2c3e685da" target="_top" xlink:title="Alterna el estado del LED.">
<polygon fill="white" stroke="#666666" points="234.75,-58 161,-58 161,-38 234.75,-38 234.75,-58"/>
<text text-anchor="middle" x="197.88" y="-44.5" font-family="Helvetica,sans-Serif" font-size="10.00">LED::alternar</text>
</a>
</g>
</g>
<!-- Node1&#45;&gt;Node2 -->
<g id="edge1_Node000001_Node000002" class="edge">
<title>Node1&#45;&gt;Node2</title>
<g id="a_edge1_Node000001_Node000002"><a xlink:title=" ">
<path fill="none" stroke="#63b8ff" d="M259.16,-37.73C251.07,-39.11 242.85,-40.51 235.2,-41.81"/>
<polygon fill="#63b8ff" stroke="#63b8ff" points="259.67,-41.19 268.94,-36.06 258.5,-34.29 259.67,-41.19"/>
</a>
</g>
</g>
<!-- Node3 -->
<g id="Node000003" class="node">
<title>Node3</title>
<g id="a_Node000003"><a xlink:href="class_l_e_d.html#a7431e9efb39a2890f75b4e235b8f617e" target="_top" xlink:title="Hace que el LED brille por un tiempo determinado.">
<polygon fill="white" stroke="#666666" points="230.25,-20 165.5,-20 165.5,0 230.25,0 230.25,-20"/>
<text text-anchor="middle" x="197.88" y="-6.5" font-family="Helvetica,sans-Serif" font-size="10.00">LED::brillar</text>
</a>
</g>
</g>
<!-- Node1&#45;&gt;Node3 -->
<g id="edge2_Node000001_Node000003" class="edge">
<title>Node1&#45;&gt;Node3</title>
<g id="a_edge2_Node000001_Node000003"><a xlink:title=" ">
<path fill="none" stroke="#63b8ff" d="M259.13,-20.27C249.37,-18.6 239.42,-16.91 230.5,-15.39"/>
<polygon fill="#63b8ff" stroke="#63b8ff" points="258.5,-23.71 268.94,-21.94 259.67,-16.81 258.5,-23.71"/>
</a>
</g>
</g>
<!-- Node4 -->
<g id="Node000004" class="node">
<title>Node4</title>
<g id="a_Node000004"><a xlink:href="_hola_mundo_i_beacon_8ino.html#a27ffed2fef5d69b87e240022e59c59ff" target="_top" xlink:title="Realiza una secuencia de encendido y apagado del LED. Utiliza tiempos de espera definidos entre cambi...">
<polygon fill="white" stroke="#666666" points="125,-20 70,-20 70,0 125,0 125,-20"/>
<text text-anchor="middle" x="97.5" y="-6.5" font-family="Helvetica,sans-Serif" font-size="10.00">lucecitas</text>
</a>
</g>
</g>
<!-- Node3&#45;&gt;Node4 -->
<g id="edge3_Node000003_Node000004" class="edge">
<title>Node3&#45;&gt;Node4</title>
<g id="a_edge3_Node000003_Node000004"><a xlink:title=" ">
<path fill="none" stroke="#63b8ff" d="M153.75,-10C144.14,-10 134.22,-10 125.48,-10"/>
<polygon fill="#63b8ff" stroke="#63b8ff" points="153.69,-13.5 163.69,-10 153.69,-6.5 153.69,-13.5"/>
</a>
</g>
</g>
<!-- Node5 -->
<g id="Node000005" class="node">
<title>Node5</title>
<g id="a_Node000005"><a xlink:href="_hola_mundo_i_beacon_8ino.html#afe461d27b9c48d5921c00d521181f12f" target="_top" xlink:title="Función principal (loop) del programa. Ejecuta mediciones de CO2 y temperatura, publica los datos vía...">
<polygon fill="white" stroke="#666666" points="34,-20 0,-20 0,0 34,0 34,-20"/>
<text text-anchor="middle" x="17" y="-6.5" font-family="Helvetica,sans-Serif" font-size="10.00">loop</text>
</a>
</g>
</g>
<!-- Node4&#45;&gt;Node5 -->
<g id="edge4_Node000004_Node000005" class="edge">
<title>Node4&#45;&gt;Node5</title>
<g id="a_edge4_Node000004_Node000005"><a xlink:title=" ">
<path fill="none" stroke="#63b8ff" d="M58.57,-10C50.09,-10 41.54,-10 34.48,-10"/>
<polygon fill="#63b8ff" stroke="#63b8ff" points="58.41,-13.5 68.41,-10 58.41,-6.5 58.41,-13.5"/>
</a>
</g>
</g>
</g>
</svg>
