<?xml version="1.0" encoding="UTF-8" standalone="no"?>
<!DOCTYPE svg PUBLIC "-//W3C//DTD SVG 1.1//EN"
 "http://www.w3.org/Graphics/SVG/1.1/DTD/svg11.dtd">
<!-- Generated by graphviz version 12.1.1 (20240910.0053)
 -->
<!-- Title: PuertoSerie::escribir Pages: 1 -->
<svg width="362pt" height="204pt"
 viewBox="0.00 0.00 362.00 204.00" xmlns="http://www.w3.org/2000/svg" xmlns:xlink="http://www.w3.org/1999/xlink">
<g id="graph0" class="graph" transform="scale(1 1) rotate(0) translate(4 200)">
<title>PuertoSerie::escribir</title>
<!-- Node1 -->
<g id="Node000001" class="node">
<title>Node1</title>
<g id="a_Node000001"><a xlink:title="Escribe un mensaje a través del puerto serie.">
<polygon fill="#999999" stroke="#666666" points="354,-102 249.5,-102 249.5,-82 354,-82 354,-102"/>
<text text-anchor="middle" x="301.75" y="-88.5" font-family="Helvetica,sans-Serif" font-size="10.00">PuertoSerie::escribir</text>
</a>
</g>
</g>
<!-- Node2 -->
<g id="Node000002" class="node">
<title>Node2</title>
<g id="a_Node000002"><a xlink:href="class_servicio_en_emisora_1_1_caracteristica.html#ad93e0c5998aeb15c920cd5d6db7a0e3b" target="_top" xlink:title="Activa la característica para que esté lista para operar.">
<polygon fill="white" stroke="#666666" points="197.75,-196 85.75,-196 85.75,-164 197.75,-164 197.75,-196"/>
<text text-anchor="start" x="93.75" y="-182.5" font-family="Helvetica,sans-Serif" font-size="10.00">ServicioEnEmisora::</text>
<text text-anchor="middle" x="141.75" y="-170.5" font-family="Helvetica,sans-Serif" font-size="10.00">Caracteristica::activar</text>
</a>
</g>
</g>
<!-- Node1&#45;&gt;Node2 -->
<g id="edge1_Node000001_Node000002" class="edge">
<title>Node1&#45;&gt;Node2</title>
<g id="a_edge1_Node000001_Node000002"><a xlink:title=" ">
<path fill="none" stroke="#63b8ff" d="M280.23,-109.42C263.21,-123.21 237.94,-142.2 213.5,-155 207.61,-158.08 201.27,-160.93 194.87,-163.51"/>
<polygon fill="#63b8ff" stroke="#63b8ff" points="282.12,-112.4 287.6,-103.34 277.66,-107 282.12,-112.4"/>
</a>
</g>
</g>
<!-- Node3 -->
<g id="Node000003" class="node">
<title>Node3</title>
<g id="a_Node000003"><a xlink:href="class_emisora_b_l_e.html#a0f027a1c447357c5fe79200b36451731" target="_top" xlink:title="Añade un servicio a la emisora BLE.">
<polygon fill="white" stroke="#666666" points="213.5,-146 70,-146 70,-126 213.5,-126 213.5,-146"/>
<text text-anchor="middle" x="141.75" y="-132.5" font-family="Helvetica,sans-Serif" font-size="10.00">EmisoraBLE::anyadirServicio</text>
</a>
</g>
</g>
<!-- Node1&#45;&gt;Node3 -->
<g id="edge2_Node000001_Node000003" class="edge">
<title>Node1&#45;&gt;Node3</title>
<g id="a_edge2_Node000001_Node000003"><a xlink:title=" ">
<path fill="none" stroke="#63b8ff" d="M254.02,-105.54C240.92,-109.3 226.67,-113.35 213.5,-117 203.33,-119.82 192.32,-122.81 182.08,-125.56"/>
<polygon fill="#63b8ff" stroke="#63b8ff" points="254.61,-109.02 263.25,-102.89 252.67,-102.29 254.61,-109.02"/>
</a>
</g>
</g>
<!-- Node4 -->
<g id="Node000004" class="node">
<title>Node4</title>
<g id="a_Node000004"><a xlink:href="class_emisora_b_l_e.html#a8439d1e85ec8d630fcd33b01d8987d41" target="_top" xlink:title="Emite un anuncio iBeacon con una carga libre.">
<polygon fill="white" stroke="#666666" points="209.75,-108 73.75,-108 73.75,-76 209.75,-76 209.75,-108"/>
<text text-anchor="start" x="81.75" y="-94.5" font-family="Helvetica,sans-Serif" font-size="10.00">EmisoraBLE::emitirAnuncio</text>
<text text-anchor="middle" x="141.75" y="-82.5" font-family="Helvetica,sans-Serif" font-size="10.00">IBeaconLibre</text>
</a>
</g>
</g>
<!-- Node1&#45;&gt;Node4 -->
<g id="edge3_Node000001_Node000004" class="edge">
<title>Node1&#45;&gt;Node4</title>
<g id="a_edge3_Node000001_Node000004"><a xlink:title=" ">
<path fill="none" stroke="#63b8ff" d="M237.72,-92C228.65,-92 219.29,-92 210.14,-92"/>
<polygon fill="#63b8ff" stroke="#63b8ff" points="237.5,-95.5 247.5,-92 237.5,-88.5 237.5,-95.5"/>
</a>
</g>
</g>
<!-- Node5 -->
<g id="Node000005" class="node">
<title>Node5</title>
<g id="a_Node000005"><a xlink:href="_hola_mundo_i_beacon_8ino.html#afe461d27b9c48d5921c00d521181f12f" target="_top" xlink:title="Función principal (loop) del programa. Ejecuta mediciones de CO2 y temperatura, publica los datos vía...">
<polygon fill="white" stroke="#666666" points="34,-80 0,-80 0,-60 34,-60 34,-80"/>
<text text-anchor="middle" x="17" y="-66.5" font-family="Helvetica,sans-Serif" font-size="10.00">loop</text>
</a>
</g>
</g>
<!-- Node1&#45;&gt;Node5 -->
<g id="edge5_Node000001_Node000005" class="edge">
<title>Node1&#45;&gt;Node5</title>
<g id="a_edge5_Node000001_Node000005"><a xlink:title=" ">
<path fill="none" stroke="#63b8ff" d="M261.29,-78.17C246.5,-73.66 229.42,-69.24 213.5,-67 147.61,-57.75 68.02,-64.42 34.33,-68.06"/>
<polygon fill="#63b8ff" stroke="#63b8ff" points="260.07,-81.45 270.66,-81.15 262.19,-74.78 260.07,-81.45"/>
</a>
</g>
</g>
<!-- Node6 -->
<g id="Node000006" class="node">
<title>Node6</title>
<g id="a_Node000006"><a xlink:href="_hola_mundo_i_beacon_8ino.html#a4fc01d736fe50cf5b977f755b675f11d" target="_top" xlink:title="Función de configuración (setup). Inicializa los módulos de comunicación, medición y publicación.">
<polygon fill="white" stroke="#666666" points="161.75,-20 121.75,-20 121.75,0 161.75,0 161.75,-20"/>
<text text-anchor="middle" x="141.75" y="-6.5" font-family="Helvetica,sans-Serif" font-size="10.00">setup</text>
</a>
</g>
</g>
<!-- Node1&#45;&gt;Node6 -->
<g id="edge6_Node000001_Node000006" class="edge">
<title>Node1&#45;&gt;Node6</title>
<g id="a_edge6_Node000001_Node000006"><a xlink:title=" ">
<path fill="none" stroke="#63b8ff" d="M278.38,-74.77C261.31,-62.21 236.83,-45.47 213.5,-34 196.85,-25.82 176.73,-19.29 162.21,-15.12"/>
<polygon fill="#63b8ff" stroke="#63b8ff" points="276.2,-77.5 286.3,-80.69 280.39,-71.9 276.2,-77.5"/>
</a>
</g>
</g>
<!-- Node4&#45;&gt;Node5 -->
<g id="edge4_Node000004_Node000005" class="edge">
<title>Node4&#45;&gt;Node5</title>
<g id="a_edge4_Node000004_Node000005"><a xlink:title=" ">
<path fill="none" stroke="#63b8ff" d="M62.21,-77.92C51.8,-76.06 42.1,-74.32 34.46,-72.95"/>
<polygon fill="#63b8ff" stroke="#63b8ff" points="61.32,-81.32 71.78,-79.64 62.55,-74.43 61.32,-81.32"/>
</a>
</g>
</g>
</g>
</svg>
