<?xml version="1.0" encoding="UTF-8" standalone="no"?>
<!DOCTYPE svg PUBLIC "-//W3C//DTD SVG 1.1//EN"
 "http://www.w3.org/Graphics/SVG/1.1/DTD/svg11.dtd">
<!-- Generated by graphviz version 12.1.1 (20240910.0053)
 -->
<!-- Title: ServicioEnEmisora::Caracteristica::Caracteristica Pages: 1 -->
<!--zoomable 152 -->

<svg id="main" version="1.1" xmlns="http://www.w3.org/2000/svg" xmlns:xlink="http://www.w3.org/1999/xlink" xml:space="preserve" onload="init(evt)">

<style type="text/css"><![CDATA[
.node, .edge {opacity: 0.7;}
.node.selected, .edge.selected {opacity: 1;}
.edge:hover path { stroke: red; }
.edge:hover polygon { stroke: red; fill: red; }
]]></style>

<defs>
  <circle id="rim" cx="0" cy="0" r="7"/>
  <circle id="rim2" cx="0" cy="0" r="3.5"/>
  <g id="zoomPlus">
    <use xlink:href="#rim" fill="#404040"><set attributeName="fill" to="#808080" begin="zoomplus.mouseover" end="zoomplus.mouseout"/></use>
    <path d="M-4,0h8M0,-4v8" fill="none" stroke="white" stroke-width="1.5" pointer-events="none"/>
  </g>
  <g id="zoomMin">
    <use xlink:href="#rim" fill="#404040"><set attributeName="fill" to="#808080" begin="zoomminus.mouseover" end="zoomminus.mouseout"/></use>
    <path d="M-4,0h8" fill="none" stroke="white" stroke-width="1.5" pointer-events="none"/>
  </g>
  <g id="arrowUp" transform="translate(30 24)">
    <use xlink:href="#rim"/>
    <path pointer-events="none" fill="none" stroke="white" stroke-width="1.5" d="M0,-3.0v7 M-2.5,-0.5L0,-3.0L2.5,-0.5"/>
  </g>
  <g id="arrowRight" transform="rotate(90) translate(36 -43)">
    <use xlink:href="#rim"/>
    <path pointer-events="none" fill="none" stroke="white" stroke-width="1.5" d="M0,-3.0v7 M-2.5,-0.5L0,-3.0L2.5,-0.5"/>
  </g>
  <g id="arrowDown" transform="rotate(180) translate(-30 -48)">
    <use xlink:href="#rim"/>
    <path pointer-events="none" fill="none" stroke="white" stroke-width="1.5" d="M0,-3.0v7 M-2.5,-0.5L0,-3.0L2.5,-0.5"/>
  </g>
  <g id="arrowLeft" transform="rotate(270) translate(-36 17)">
    <use xlink:href="#rim"/>
    <path pointer-events="none" fill="none" stroke="white" stroke-width="1.5" d="M0,-3.0v7 M-2.5,-0.5L0,-3.0L2.5,-0.5"/>
  </g>
  <g id="resetDef">
    <use xlink:href="#rim2" fill="#404040"><set attributeName="fill" to="#808080" begin="reset.mouseover" end="reset.mouseout"/></use>
  </g>
</defs>
<script type="application/ecmascript">
var viewWidth = 560;
var viewHeight = 152;
var sectionId = 'dynsection-1';
</script>
<script type="application/ecmascript" xlink:href="svg.min.js"/>
<svg id="graph" class="graph">
<g id="viewport">
<title>ServicioEnEmisora::Caracteristica::Caracteristica</title>
<!-- Node1 -->
<g id="Node000001" class="node">
<title>Node1</title>
<g id="a_Node000001"><a xlink:title="Constructor que permite definir propiedades y permisos de la característica.">
<polygon fill="#999999" stroke="#666666" points="143.5,-94 0,-94 0,-62 143.5,-62 143.5,-94"/>
<text text-anchor="start" x="8" y="-80.5" font-family="Helvetica,sans-Serif" font-size="10.00">ServicioEnEmisora::</text>
<text text-anchor="middle" x="71.75" y="-68.5" font-family="Helvetica,sans-Serif" font-size="10.00">Caracteristica::Caracteristica</text>
</a>
</g>
</g>
<!-- Node2 -->
<g id="Node000002" class="node">
<title>Node2</title>
<g id="a_Node000002"><a xlink:href="class_servicio_en_emisora_1_1_caracteristica.html#a7fe53370615887c50304300457c1114c" target="_top" xlink:title="Asigna propiedades, permisos y tamaño de datos de la característica.">
<polygon fill="white" stroke="#666666" points="347.75,-100 179.5,-100 179.5,-56 347.75,-56 347.75,-100"/>
<text text-anchor="start" x="187.5" y="-86.5" font-family="Helvetica,sans-Serif" font-size="10.00">ServicioEnEmisora::</text>
<text text-anchor="start" x="187.5" y="-74.5" font-family="Helvetica,sans-Serif" font-size="10.00">Caracteristica::asignarPropiedades</text>
<text text-anchor="middle" x="263.62" y="-62.5" font-family="Helvetica,sans-Serif" font-size="10.00">PermisosYTamanyoDatos</text>
</a>
</g>
</g>
<!-- Node1&#45;&gt;Node2 -->
<g id="edge1_Node000001_Node000002" class="edge">
<title>Node1&#45;&gt;Node2</title>
<g id="a_edge1_Node000001_Node000002"><a xlink:title=" ">
<path fill="none" stroke="#63b8ff" d="M143.99,-78C151.79,-78 159.81,-78 167.83,-78"/>
<polygon fill="#63b8ff" stroke="#63b8ff" points="167.64,-81.5 177.64,-78 167.64,-74.5 167.64,-81.5"/>
</a>
</g>
</g>
<!-- Node3 -->
<g id="Node000003" class="node">
<title>Node3</title>
<g id="a_Node000003"><a xlink:href="class_servicio_en_emisora_1_1_caracteristica.html#a0b9429aace3771c7809a9b65ea84482e" target="_top" xlink:title=" ">
<polygon fill="white" stroke="#666666" points="545.62,-144 390.12,-144 390.12,-112 545.62,-112 545.62,-144"/>
<text text-anchor="start" x="398.12" y="-130.5" font-family="Helvetica,sans-Serif" font-size="10.00">ServicioEnEmisora::</text>
<text text-anchor="middle" x="467.88" y="-118.5" font-family="Helvetica,sans-Serif" font-size="10.00">Caracteristica::asignarPermisos</text>
</a>
</g>
</g>
<!-- Node2&#45;&gt;Node3 -->
<g id="edge2_Node000002_Node000003" class="edge">
<title>Node2&#45;&gt;Node3</title>
<g id="a_edge2_Node000002_Node000003"><a xlink:title=" ">
<path fill="none" stroke="#63b8ff" d="M348.06,-98.63C361.66,-101.99 375.7,-105.46 389.16,-108.79"/>
<polygon fill="#63b8ff" stroke="#63b8ff" points="388.28,-112.18 398.83,-111.18 389.96,-105.38 388.28,-112.18"/>
</a>
</g>
</g>
<!-- Node4 -->
<g id="Node000004" class="node">
<title>Node4</title>
<g id="a_Node000004"><a xlink:href="class_servicio_en_emisora_1_1_caracteristica.html#a1d99a13ca16b3306b11e6d7ad50d059e" target="_top" xlink:title=" ">
<polygon fill="white" stroke="#666666" points="552,-94 383.75,-94 383.75,-62 552,-62 552,-94"/>
<text text-anchor="start" x="391.75" y="-80.5" font-family="Helvetica,sans-Serif" font-size="10.00">ServicioEnEmisora::</text>
<text text-anchor="middle" x="467.88" y="-68.5" font-family="Helvetica,sans-Serif" font-size="10.00">Caracteristica::asignarPropiedades</text>
</a>
</g>
</g>
<!-- Node2&#45;&gt;Node4 -->
<g id="edge3_Node000002_Node000004" class="edge">
<title>Node2&#45;&gt;Node4</title>
<g id="a_edge3_Node000002_Node000004"><a xlink:title=" ">
<path fill="none" stroke="#63b8ff" d="M348.06,-78C355.97,-78 364.03,-78 372.04,-78"/>
<polygon fill="#63b8ff" stroke="#63b8ff" points="371.8,-81.5 381.8,-78 371.8,-74.5 371.8,-81.5"/>
</a>
</g>
</g>
<!-- Node5 -->
<g id="Node000005" class="node">
<title>Node5</title>
<g id="a_Node000005"><a xlink:href="class_servicio_en_emisora_1_1_caracteristica.html#a224fe13056debc329ea6e68458821f54" target="_top" xlink:title=" ">
<polygon fill="white" stroke="#666666" points="544.88,-44 390.88,-44 390.88,0 544.88,0 544.88,-44"/>
<text text-anchor="start" x="398.88" y="-30.5" font-family="Helvetica,sans-Serif" font-size="10.00">ServicioEnEmisora::</text>
<text text-anchor="start" x="398.88" y="-18.5" font-family="Helvetica,sans-Serif" font-size="10.00">Caracteristica::asignarTamanyo</text>
<text text-anchor="middle" x="467.88" y="-6.5" font-family="Helvetica,sans-Serif" font-size="10.00">Datos</text>
</a>
</g>
</g>
<!-- Node2&#45;&gt;Node5 -->
<g id="edge4_Node000002_Node000005" class="edge">
<title>Node2&#45;&gt;Node5</title>
<g id="a_edge4_Node000002_Node000005"><a xlink:title=" ">
<path fill="none" stroke="#63b8ff" d="M345.72,-55.55C356.97,-52.43 368.55,-49.22 379.9,-46.08"/>
<polygon fill="#63b8ff" stroke="#63b8ff" points="380.52,-49.54 389.22,-43.5 378.65,-42.8 380.52,-49.54"/>
</a>
</g>
</g>
</g>
</svg>

<g id="navigator" transform="translate(0 0)" fill="#404254">
  <rect fill="#f2f5e9" fill-opacity="0.5" stroke="#606060" stroke-width=".5" x="0" y="0" width="60" height="60"/>
  <use id="zoomplus" xlink:href="#zoomPlus" x="17" y="9" onmousedown="handleZoom(evt,'in')"/>
  <use id="zoomminus" xlink:href="#zoomMin" x="42" y="9" onmousedown="handleZoom(evt,'out')"/>
  <use id="reset" xlink:href="#resetDef" x="30" y="36" onmousedown="handleReset()"/>
   <use id="arrowup" xlink:href="#arrowUp" x="0" y="0" onmousedown="handlePan(0,-1)"/>
  <use id="arrowright" xlink:href="#arrowRight" x="0" y="0" onmousedown="handlePan(1,0)"/>
  <use id="arrowdown" xlink:href="#arrowDown" x="0" y="0" onmousedown="handlePan(0,1)"/>
  <use id="arrowleft" xlink:href="#arrowLeft" x="0" y="0" onmousedown="handlePan(-1,0)"/>
</g>
<svg viewBox="0 0 15 15" width="100%" height="30px" preserveAspectRatio="xMaxYMin meet">
 <g id="arrow_out" transform="scale(0.3 0.3)">
  <a xlink:href="class_servicio_en_emisora_1_1_caracteristica_a646c15ae6b57fc25d144d2e2ed160c0c_cgraph_org.svg" target="_base">
   <rect id="button" ry="5" rx="5" y="6" x="6" height="38" width="38"
        fill="#f2f5e9" fill-opacity="0.5" stroke="#606060" stroke-width="1.0"/>
   <path id="arrow"
     d="M 11.500037,31.436501 C 11.940474,20.09759 22.043105,11.32322 32.158766,21.979434 L 37.068811,17.246167 C 37.068811,17.246167 37.088388,32 37.088388,32 L 22.160133,31.978069 C 22.160133,31.978069 26.997745,27.140456 26.997745,27.140456 C 18.528582,18.264221 13.291696,25.230495 11.500037,31.436501 z"
     style="fill:#404040;"/>
  </a>
 </g>
</svg>

<style type='text/css'>
<![CDATA[
[data-mouse-over-selected='false'] { opacity: 0.7; }
[data-mouse-over-selected='true']  { opacity: 1.0; }
]]>
</style>
<script type="application/ecmascript"><![CDATA[
document.addEventListener('DOMContentLoaded', (event) => {
  highlightEdges();
  highlightAdjacentNodes();
});
]]></script>
</svg>
