<?xml version="1.0" encoding="UTF-8" standalone="no"?>
<!DOCTYPE svg PUBLIC "-//W3C//DTD SVG 1.1//EN"
 "http://www.w3.org/Graphics/SVG/1.1/DTD/svg11.dtd">
<!-- Generated by graphviz version 12.1.1 (20240910.0053)
 -->
<!-- Title: ServicioEnEmisora::Caracteristica::Caracteristica Pages: 1 -->
<svg width="560pt" height="152pt"
 viewBox="0.00 0.00 560.00 152.00" xmlns="http://www.w3.org/2000/svg" xmlns:xlink="http://www.w3.org/1999/xlink">
<g id="graph0" class="graph" transform="scale(1 1) rotate(0) translate(4 148)">
<title>ServicioEnEmisora::Caracteristica::Caracteristica</title>
<!-- Node1 -->
<g id="Node000001" class="node">
<title>Node1</title>
<g id="a_Node000001"><a xlink:title="Constructor que permite definir propiedades y permisos de la característica.">
<polygon fill="#999999" stroke="#666666" points="143.5,-94 0,-94 0,-62 143.5,-62 143.5,-94"/>
<text text-anchor="start" x="8" y="-80.5" font-family="Helvetica,sans-Serif" font-size="10.00">ServicioEnEmisora::</text>
<text text-anchor="middle" x="71.75" y="-68.5" font-family="Helvetica,sans-Serif" font-size="10.00">Caracteristica::Caracteristica</text>
</a>
</g>
</g>
<!-- Node2 -->
<g id="Node000002" class="node">
<title>Node2</title>
<g id="a_Node000002"><a xlink:href="class_servicio_en_emisora_1_1_caracteristica.html#a7fe53370615887c50304300457c1114c" target="_top" xlink:title="Asigna propiedades, permisos y tamaño de datos de la característica.">
<polygon fill="white" stroke="#666666" points="347.75,-100 179.5,-100 179.5,-56 347.75,-56 347.75,-100"/>
<text text-anchor="start" x="187.5" y="-86.5" font-family="Helvetica,sans-Serif" font-size="10.00">ServicioEnEmisora::</text>
<text text-anchor="start" x="187.5" y="-74.5" font-family="Helvetica,sans-Serif" font-size="10.00">Caracteristica::asignarPropiedades</text>
<text text-anchor="middle" x="263.62" y="-62.5" font-family="Helvetica,sans-Serif" font-size="10.00">PermisosYTamanyoDatos</text>
</a>
</g>
</g>
<!-- Node1&#45;&gt;Node2 -->
<g id="edge1_Node000001_Node000002" class="edge">
<title>Node1&#45;&gt;Node2</title>
<g id="a_edge1_Node000001_Node000002"><a xlink:title=" ">
<path fill="none" stroke="#63b8ff" d="M143.99,-78C151.79,-78 159.81,-78 167.83,-78"/>
<polygon fill="#63b8ff" stroke="#63b8ff" points="167.64,-81.5 177.64,-78 167.64,-74.5 167.64,-81.5"/>
</a>
</g>
</g>
<!-- Node3 -->
<g id="Node000003" class="node">
<title>Node3</title>
<g id="a_Node000003"><a xlink:href="class_servicio_en_emisora_1_1_caracteristica.html#a0b9429aace3771c7809a9b65ea84482e" target="_top" xlink:title=" ">
<polygon fill="white" stroke="#666666" points="545.62,-144 390.12,-144 390.12,-112 545.62,-112 545.62,-144"/>
<text text-anchor="start" x="398.12" y="-130.5" font-family="Helvetica,sans-Serif" font-size="10.00">ServicioEnEmisora::</text>
<text text-anchor="middle" x="467.88" y="-118.5" font-family="Helvetica,sans-Serif" font-size="10.00">Caracteristica::asignarPermisos</text>
</a>
</g>
</g>
<!-- Node2&#45;&gt;Node3 -->
<g id="edge2_Node000002_Node000003" class="edge">
<title>Node2&#45;&gt;Node3</title>
<g id="a_edge2_Node000002_Node000003"><a xlink:title=" ">
<path fill="none" stroke="#63b8ff" d="M348.06,-98.63C361.66,-101.99 375.7,-105.46 389.16,-108.79"/>
<polygon fill="#63b8ff" stroke="#63b8ff" points="388.28,-112.18 398.83,-111.18 389.96,-105.38 388.28,-112.18"/>
</a>
</g>
</g>
<!-- Node4 -->
<g id="Node000004" class="node">
<title>Node4</title>
<g id="a_Node000004"><a xlink:href="class_servicio_en_emisora_1_1_caracteristica.html#a1d99a13ca16b3306b11e6d7ad50d059e" target="_top" xlink:title=" ">
<polygon fill="white" stroke="#666666" points="552,-94 383.75,-94 383.75,-62 552,-62 552,-94"/>
<text text-anchor="start" x="391.75" y="-80.5" font-family="Helvetica,sans-Serif" font-size="10.00">ServicioEnEmisora::</text>
<text text-anchor="middle" x="467.88" y="-68.5" font-family="Helvetica,sans-Serif" font-size="10.00">Caracteristica::asignarPropiedades</text>
</a>
</g>
</g>
<!-- Node2&#45;&gt;Node4 -->
<g id="edge3_Node000002_Node000004" class="edge">
<title>Node2&#45;&gt;Node4</title>
<g id="a_edge3_Node000002_Node000004"><a xlink:title=" ">
<path fill="none" stroke="#63b8ff" d="M348.06,-78C355.97,-78 364.03,-78 372.04,-78"/>
<polygon fill="#63b8ff" stroke="#63b8ff" points="371.8,-81.5 381.8,-78 371.8,-74.5 371.8,-81.5"/>
</a>
</g>
</g>
<!-- Node5 -->
<g id="Node000005" class="node">
<title>Node5</title>
<g id="a_Node000005"><a xlink:href="class_servicio_en_emisora_1_1_caracteristica.html#a224fe13056debc329ea6e68458821f54" target="_top" xlink:title=" ">
<polygon fill="white" stroke="#666666" points="544.88,-44 390.88,-44 390.88,0 544.88,0 544.88,-44"/>
<text text-anchor="start" x="398.88" y="-30.5" font-family="Helvetica,sans-Serif" font-size="10.00">ServicioEnEmisora::</text>
<text text-anchor="start" x="398.88" y="-18.5" font-family="Helvetica,sans-Serif" font-size="10.00">Caracteristica::asignarTamanyo</text>
<text text-anchor="middle" x="467.88" y="-6.5" font-family="Helvetica,sans-Serif" font-size="10.00">Datos</text>
</a>
</g>
</g>
<!-- Node2&#45;&gt;Node5 -->
<g id="edge4_Node000002_Node000005" class="edge">
<title>Node2&#45;&gt;Node5</title>
<g id="a_edge4_Node000002_Node000005"><a xlink:title=" ">
<path fill="none" stroke="#63b8ff" d="M345.72,-55.55C356.97,-52.43 368.55,-49.22 379.9,-46.08"/>
<polygon fill="#63b8ff" stroke="#63b8ff" points="380.52,-49.54 389.22,-43.5 378.65,-42.8 380.52,-49.54"/>
</a>
</g>
</g>
</g>
</svg>
