<?xml version="1.0" encoding="UTF-8" standalone="no"?>
<!DOCTYPE svg PUBLIC "-//W3C//DTD SVG 1.1//EN"
 "http://www.w3.org/Graphics/SVG/1.1/DTD/svg11.dtd">
<!-- Generated by graphviz version 12.1.1 (20240910.0053)
 -->
<!-- Title: G Pages: 1 -->
<svg width="382pt" height="152pt"
 viewBox="0.00 0.00 382.38 152.00" xmlns="http://www.w3.org/2000/svg" xmlns:xlink="http://www.w3.org/1999/xlink">

<svg id="main" version="1.1" xmlns="http://www.w3.org/2000/svg" xmlns:xlink="http://www.w3.org/1999/xlink" xml:space="preserve">

<style type="text/css"><![CDATA[
.node, .edge {opacity: 0.7;}
.node.selected, .edge.selected {opacity: 1;}
.edge:hover path { stroke: red; }
.edge:hover polygon { stroke: red; fill: red; }
]]></style>
<script type="application/ecmascript" xlink:href="svg.min.js"/>
<svg id="graph" class="graph">
<g id="graph0" class="graph" transform="scale(1 1) rotate(0) translate(4 148)">
<title>G</title>
<polygon fill="white" stroke="none" points="-4,4 -4,-148 378.38,-148 378.38,4 -4,4"/>
<!-- nombreEmisora_ -->
<g id="node1" class="node">
<title>nombreEmisora_</title>
<ellipse fill="none" stroke="black" cx="248.81" cy="-126" rx="125.56" ry="18"/>
<text text-anchor="middle" x="248.81" y="-120.95" font-family="Times New Roman,serif" font-size="14.00">nombreEmisora_ : const char*</text>
</g>
<!-- fabricanteID_ -->
<g id="node2" class="node">
<title>fabricanteID_</title>
<ellipse fill="none" stroke="black" cx="248.81" cy="-72" rx="100.48" ry="18"/>
<text text-anchor="middle" x="248.81" y="-66.95" font-family="Times New Roman,serif" font-size="14.00">fabricanteID_ : uint16_t</text>
</g>
<!-- txPower_ -->
<g id="node3" class="node">
<title>txPower_</title>
<ellipse fill="none" stroke="black" cx="248.81" cy="-18" rx="75.41" ry="18"/>
<text text-anchor="middle" x="248.81" y="-12.95" font-family="Times New Roman,serif" font-size="14.00">txPower_ : int8_t</text>
</g>
<!-- constructor -->
<g id="node4" class="node">
<title>constructor</title>
<polygon fill="none" stroke="black" points="87.25,-90 0,-90 0,-54 87.25,-54 87.25,-90"/>
<text text-anchor="middle" x="43.62" y="-66.95" font-family="Times New Roman,serif" font-size="14.00">EmisoraBLE</text>
</g>
<!-- constructor&#45;&gt;nombreEmisora_ -->
<g id="edge1" class="edge">
<title>constructor&#45;&gt;nombreEmisora_</title>
<path fill="none" stroke="black" d="M87.6,-87.77C99.09,-91.71 111.57,-95.74 123.25,-99 135.74,-102.48 149.04,-105.79 162.12,-108.81"/>
<polygon fill="black" stroke="black" points="161.03,-112.15 171.56,-110.95 162.58,-105.33 161.03,-112.15"/>
</g>
<!-- constructor&#45;&gt;fabricanteID_ -->
<g id="edge2" class="edge">
<title>constructor&#45;&gt;fabricanteID_</title>
<path fill="none" stroke="black" d="M87.72,-72C102.24,-72 119.19,-72 136.51,-72"/>
<polygon fill="black" stroke="black" points="136.42,-75.5 146.42,-72 136.42,-68.5 136.42,-75.5"/>
</g>
<!-- constructor&#45;&gt;txPower_ -->
<g id="edge3" class="edge">
<title>constructor&#45;&gt;txPower_</title>
<path fill="none" stroke="black" d="M87.6,-56.23C99.09,-52.29 111.57,-48.26 123.25,-45 140.73,-40.12 159.79,-35.6 177.63,-31.7"/>
<polygon fill="black" stroke="black" points="178.33,-35.13 187.37,-29.62 176.86,-28.29 178.33,-35.13"/>
</g>
</g>
</svg>
</svg>

<style type='text/css'>
<![CDATA[
[data-mouse-over-selected='false'] { opacity: 0.7; }
[data-mouse-over-selected='true']  { opacity: 1.0; }
]]>
</style>
<script type="application/ecmascript"><![CDATA[
document.addEventListener('DOMContentLoaded', (event) => {
  highlightEdges();
  highlightAdjacentNodes();
});
]]></script>
</svg>
