<?xml version="1.0" encoding="UTF-8" standalone="no"?>
<!DOCTYPE svg PUBLIC "-//W3C//DTD SVG 1.1//EN"
 "http://www.w3.org/Graphics/SVG/1.1/DTD/svg11.dtd">
<!-- Generated by graphviz version 12.1.1 (20240910.0053)
 -->
<!-- Title: G Pages: 1 -->
<svg width="359pt" height="98pt"
 viewBox="0.00 0.00 358.75 98.00" xmlns="http://www.w3.org/2000/svg" xmlns:xlink="http://www.w3.org/1999/xlink">
<g id="graph0" class="graph" transform="scale(1 1) rotate(0) translate(4 94)">
<title>G</title>
<polygon fill="white" stroke="none" points="-4,4 -4,-94 354.75,-94 354.75,4 -4,4"/>
<!-- carga -->
<g id="node1" class="node">
<title>carga</title>
<polygon fill="none" stroke="black" points="337.62,-90 218.88,-90 218.88,-54 337.62,-54 337.62,-90"/>
<text text-anchor="middle" x="278.25" y="-66.95" font-family="Times New Roman,serif" font-size="14.00">carga : const char*</text>
</g>
<!-- tamanyoCarga -->
<g id="node2" class="node">
<title>tamanyoCarga</title>
<polygon fill="none" stroke="black" points="350.75,-36 205.75,-36 205.75,0 350.75,0 350.75,-36"/>
<text text-anchor="middle" x="278.25" y="-12.95" font-family="Times New Roman,serif" font-size="14.00">tamanyoCarga : uint8_t</text>
</g>
<!-- function -->
<g id="node3" class="node">
<title>function</title>
<polygon fill="none" stroke="black" points="169.75,-63 0,-63 0,-27 169.75,-27 169.75,-63"/>
<text text-anchor="middle" x="84.88" y="-39.95" font-family="Times New Roman,serif" font-size="14.00">emitirAnuncioIBeaconLibre</text>
</g>
<!-- function&#45;&gt;carga -->
<g id="edge1" class="edge">
<title>function&#45;&gt;carga</title>
<path fill="none" stroke="black" d="M170.09,-56.88C182.48,-58.63 195.13,-60.41 207.19,-62.12"/>
<polygon fill="black" stroke="black" points="206.65,-65.57 217.05,-63.51 207.63,-58.64 206.65,-65.57"/>
</g>
<!-- function&#45;&gt;tamanyoCarga -->
<g id="edge2" class="edge">
<title>function&#45;&gt;tamanyoCarga</title>
<path fill="none" stroke="black" d="M170.09,-33.12C178.07,-31.99 186.15,-30.85 194.11,-29.73"/>
<polygon fill="black" stroke="black" points="194.36,-33.23 203.77,-28.37 193.38,-26.3 194.36,-33.23"/>
</g>
</g>
</svg>
