<?xml version="1.0" encoding="UTF-8" standalone="no"?>
<!DOCTYPE svg PUBLIC "-//W3C//DTD SVG 1.1//EN"
 "http://www.w3.org/Graphics/SVG/1.1/DTD/svg11.dtd">
<!-- Generated by graphviz version 12.1.1 (20240910.0053)
 -->
<!-- Title: G Pages: 1 -->
<svg width="448pt" height="98pt"
 viewBox="0.00 0.00 447.60 98.00" xmlns="http://www.w3.org/2000/svg" xmlns:xlink="http://www.w3.org/1999/xlink">
<g id="graph0" class="graph" transform="scale(1 1) rotate(0) translate(4 94)">
<title>G</title>
<polygon fill="white" stroke="none" points="-4,4 -4,-94 443.6,-94 443.6,4 -4,4"/>
<!-- cbce -->
<g id="node1" class="node">
<title>cbce</title>
<ellipse fill="none" stroke="black" cx="293.05" cy="-72" rx="146.55" ry="18"/>
<text text-anchor="middle" x="293.05" y="-66.95" font-family="Times New Roman,serif" font-size="14.00">cbce : CallbackConexionEstablecida</text>
</g>
<!-- cbct -->
<g id="node2" class="node">
<title>cbct</title>
<ellipse fill="none" stroke="black" cx="293.05" cy="-18" rx="142.45" ry="18"/>
<text text-anchor="middle" x="293.05" y="-12.95" font-family="Times New Roman,serif" font-size="14.00">cbct : CallbackConexionTerminada</text>
</g>
<!-- function -->
<g id="node3" class="node">
<title>function</title>
<polygon fill="none" stroke="black" points="110.5,-63 0,-63 0,-27 110.5,-27 110.5,-63"/>
<text text-anchor="middle" x="55.25" y="-39.95" font-family="Times New Roman,serif" font-size="14.00">encenderEmisora</text>
</g>
<!-- function&#45;&gt;cbce -->
<g id="edge1" class="edge">
<title>function&#45;&gt;cbce</title>
<path fill="none" stroke="black" d="M110.94,-51.26C129.59,-53.4 151.24,-55.88 172.95,-58.36"/>
<polygon fill="black" stroke="black" points="172.45,-61.83 182.78,-59.49 173.24,-54.87 172.45,-61.83"/>
</g>
<!-- function&#45;&gt;cbct -->
<g id="edge2" class="edge">
<title>function&#45;&gt;cbct</title>
<path fill="none" stroke="black" d="M110.94,-38.74C130.03,-36.55 152.25,-34.01 174.46,-31.46"/>
<polygon fill="black" stroke="black" points="174.66,-34.96 184.2,-30.35 173.87,-28.01 174.66,-34.96"/>
</g>
</g>
</svg>
